<svg xmlns="http://www.w3.org/2000/svg" width="556" height="152" viewBox="0 0 556 152">
  <defs>
    <linearGradient id="logo-a" x1="-41.194%" x2="156.611%" y1="100%" y2="16.528%">
      <stop offset="0%" stop-color="#5E65FF"/>
      <stop offset="100%" stop-color="#B21AE8"/>
    </linearGradient>
  </defs>
  <g fill="none" fill-rule="evenodd" transform="translate(10 9)">
    <path fill="#9138F1" d="M173.99988,53.4675481 L176.014123,53.4675481 C178.760831,53.4675481 180.897128,55.4207337 182.423077,59.3271635 L182.423077,61.7076322 C182.423077,64.0575939 180.836114,66.0718165 177.662139,67.7503606 C173.938824,68.2386643 171.802527,68.7879977 171.253185,69.3983774 C169.055818,70.9243265 167.957151,72.6333639 167.957151,74.5255409 L167.957151,76.3566707 C167.957151,78.5540374 169.361004,80.446186 172.16875,82.0331731 C172.840168,82.3994009 174.549205,82.7045861 177.295913,82.948738 C180.71404,84.657801 182.423077,86.7330607 182.423077,89.1745793 L182.423077,91.0057091 C182.423077,93.7524176 180.469891,95.8887143 176.563462,97.4146635 L173.99988,97.4146635 C167.468818,97.4146635 161.670298,94.1186628 156.604147,87.5265625 C154.284704,83.5896137 153.125,79.9273907 153.125,76.5397837 L153.125,74.3424279 C153.125,67.8113656 156.421001,62.0128458 163.013101,56.9466947 C166.95005,54.627252 170.612273,53.4675481 173.99988,53.4675481 Z M199.81881,35.15625 C201.710987,35.15625 203.542099,36.376991 205.3122,38.8185096 C206.044655,39.856155 206.410877,41.7483036 206.410877,44.495012 L206.410877,54.566226 C208.516687,53.8337704 210.591947,53.4675481 212.636719,53.4675481 L214.650962,53.4675481 C221.182024,53.4675481 226.980544,56.7635488 232.046695,63.355649 C234.366137,67.2925978 235.525841,70.9548208 235.525841,74.3424279 L235.525841,91.0057091 C235.525841,93.7524176 233.572656,95.8887143 229.666226,97.4146635 L227.285757,97.4146635 C224.539049,97.4146635 222.402752,95.4614779 220.876803,91.5550481 L220.69369,87.7096755 L220.69369,74.5255409 C220.69369,71.8093514 218.801541,69.7340917 215.017188,68.2996995 L212.636719,68.2996995 C209.951048,68.2996995 207.875789,70.1918481 206.410877,73.9762019 L206.227764,77.8215745 L206.227764,91.0057091 C206.227764,93.7524176 204.274579,95.8887143 200.368149,97.4146635 L197.98768,97.4146635 C195.240972,97.4146635 193.104675,95.4614779 191.578726,91.5550481 L191.578726,41.5652043 C191.578726,38.8184959 193.531912,36.6821991 197.438341,35.15625 L199.81881,35.15625 Z M265.55637,53.4675481 L267.753726,53.4675481 C274.284788,53.4675481 280.083308,56.7635488 285.149459,63.355649 C287.468902,67.2925978 288.628606,70.9548208 288.628606,74.3424279 L288.628606,91.0057091 C288.628606,93.7524176 286.67542,95.8887143 282.76899,97.4146635 L280.388522,97.4146635 C279.320357,97.4146635 277.855468,96.7432559 275.99381,95.4004207 C273.186064,96.7432559 270.378359,97.4146635 267.570613,97.4146635 L265.55637,97.4146635 C259.025308,97.4146635 253.226788,94.1186628 248.160637,87.5265625 C245.841194,83.5896137 244.68149,79.9273907 244.68149,76.5397837 L244.68149,74.3424279 C244.68149,67.8113656 247.977491,62.0128458 254.569591,56.9466947 C258.50654,54.627252 262.168763,53.4675481 265.55637,53.4675481 Z M259.513642,76.3566707 C259.513642,79.0423412 261.40579,81.1176008 265.190144,82.582512 L267.570613,82.582512 C270.286802,82.582512 272.362062,80.6903635 273.796454,76.9060096 L273.796454,74.5255409 C273.796454,71.8093514 271.904306,69.7340917 268.119952,68.2996995 L265.739483,68.2996995 C263.053813,68.2996995 260.978553,70.1918481 259.513642,73.9762019 L259.513642,76.3566707 Z M318.659135,53.4675481 L320.85649,53.4675481 C327.387553,53.4675481 333.186072,56.7635488 338.252224,63.355649 C340.571666,67.2925978 341.73137,70.9548208 341.73137,74.3424279 L341.73137,91.0057091 C341.73137,93.7524176 339.778185,95.8887143 335.871755,97.4146635 L333.491286,97.4146635 C330.744578,97.4146635 328.608281,95.4614779 327.082332,91.5550481 L326.899219,87.7096755 L326.899219,74.5255409 C326.899219,71.8093514 325.00707,69.7340917 321.222716,68.2996995 L318.842248,68.2996995 C316.156577,68.2996995 314.081317,70.1918481 312.616406,73.9762019 L312.433293,77.8215745 L312.433293,91.0057091 C312.433293,93.7524176 310.480108,95.8887143 306.573678,97.4146635 L304.193209,97.4146635 C301.446501,97.4146635 299.310204,95.4614779 297.784255,91.5550481 L297.784255,74.3424279 C297.784255,67.8113656 301.080256,62.0128458 307.672356,56.9466947 C311.609305,54.627252 315.271528,53.4675481 318.659135,53.4675481 Z M359.127103,35.15625 C361.01928,35.15625 362.850392,36.376991 364.620493,38.8185096 C365.352948,39.856155 365.719171,41.7483036 365.719171,44.495012 L365.719171,53.1013221 L365.536058,53.2844351 L365.536058,53.4675481 L373.776142,53.4675481 C376.52285,53.4675481 378.659147,55.4207337 380.185096,59.3271635 L380.185096,61.7076322 C380.185096,64.4543407 378.231911,66.5906374 374.325481,68.1165865 L370.480108,68.2996995 L365.536058,68.2996995 L365.536058,73.060637 C365.536058,78.2793831 367.184058,81.3312356 370.480108,82.2162861 L375.607272,83.131851 C378.65917,84.9629899 380.185096,86.9772126 380.185096,89.1745793 L380.185096,91.0057091 C380.185096,93.7524176 378.231911,95.8887143 374.325481,97.4146635 L371.761899,97.4146635 C365.230837,97.4146635 359.432317,94.1186628 354.366166,87.5265625 C352.046723,83.5896137 350.887019,79.9273907 350.887019,76.5397837 L350.887019,41.5652043 C350.887019,38.8184959 352.840205,36.6821991 356.746635,35.15625 L359.127103,35.15625 Z M410.215625,53.4675481 L412.412981,53.4675481 C418.944043,53.4675481 424.742563,56.7635488 429.808714,63.355649 C432.128157,67.2925978 433.287861,70.9548208 433.287861,74.3424279 L433.287861,76.5397837 C433.287861,83.070846 429.99186,88.8693657 423.39976,93.9355168 C419.462811,96.2549595 415.800588,97.4146635 412.412981,97.4146635 L410.215625,97.4146635 C403.684563,97.4146635 397.886043,94.1186628 392.819892,87.5265625 C390.500449,83.5896137 389.340745,79.9273907 389.340745,76.5397837 L389.340745,74.3424279 C389.340745,67.8113656 392.636746,62.0128458 399.228846,56.9466947 C403.165795,54.627252 406.828018,53.4675481 410.215625,53.4675481 Z M404.172897,76.3566707 C404.172897,79.0423412 406.065045,81.1176008 409.849399,82.582512 L412.229868,82.582512 C414.946057,82.582512 417.021317,80.6903635 418.455709,76.9060096 L418.455709,74.5255409 C418.455709,71.8093514 416.563561,69.7340917 412.779207,68.2996995 L410.398738,68.2996995 C407.713068,68.2996995 405.637808,70.1918481 404.172897,73.9762019 L404.172897,76.3566707 Z M450.683594,82.765625 C453.430302,82.765625 455.566599,84.7188106 457.092548,88.6252404 L457.092548,91.0057091 C457.092548,93.7524176 455.139362,95.8887143 451.232933,97.4146635 L448.852464,97.4146635 C446.105755,97.4146635 443.969459,95.4614779 442.44351,91.5550481 L442.44351,89.1745793 C442.44351,86.4278709 444.396695,84.2915741 448.303125,82.765625 L450.683594,82.765625 Z M474.488281,35.15625 C477.23499,35.15625 479.371286,37.1094356 480.897236,41.0158654 L480.897236,43.3963341 C480.897236,46.1430426 478.94405,48.2793393 475.03762,49.8052885 L472.657151,49.8052885 C469.910443,49.8052885 467.774146,47.8521029 466.248197,43.9456731 L466.248197,41.5652043 C466.248197,38.8184959 468.201383,36.6821991 472.107813,35.15625 L474.488281,35.15625 Z M474.488281,53.4675481 C477.23499,53.4675481 479.371286,55.4207337 480.897236,59.3271635 L480.897236,91.0057091 C480.897236,93.7524176 478.94405,95.8887143 475.03762,97.4146635 L472.657151,97.4146635 C469.910443,97.4146635 467.774146,95.4614779 466.248197,91.5550481 L466.248197,59.8765024 C466.248197,57.129794 468.201383,54.9934972 472.107813,53.4675481 L474.488281,53.4675481 Z M510.927764,53.4675481 L513.12512,53.4675481 C519.656182,53.4675481 525.454702,56.7635488 530.520853,63.355649 C532.840296,67.2925978 534,70.9548208 534,74.3424279 L534,76.5397837 C534,83.070846 530.703999,88.8693657 524.111899,93.9355168 C520.17495,96.2549595 516.512727,97.4146635 513.12512,97.4146635 L510.927764,97.4146635 C504.396702,97.4146635 498.598182,94.1186628 493.532031,87.5265625 C491.212589,83.5896137 490.052885,79.9273907 490.052885,76.5397837 L490.052885,74.3424279 C490.052885,67.8113656 493.348885,62.0128458 499.940986,56.9466947 C503.877934,54.627252 507.540157,53.4675481 510.927764,53.4675481 Z M504.885036,76.3566707 C504.885036,79.0423412 506.777185,81.1176008 510.561538,82.582512 L512.942007,82.582512 C515.658197,82.582512 517.733456,80.6903635 519.167849,76.9060096 L519.167849,74.5255409 C519.167849,71.8093514 517.2757,69.7340917 513.491346,68.2996995 L511.110877,68.2996995 C508.425207,68.2996995 506.349947,70.1918481 504.885036,73.9762019 L504.885036,76.3566707 Z"/>
    <circle cx="66.5" cy="66.5" r="66.5" fill="url(#logo-a)"/>
    <g fill="#FFF" fill-rule="nonzero" transform="translate(30 14)">
      <path d="M47.7509904,14.3389931 L73.2678239,14.3993148 C73.4433822,14.3997299 73.6157374,14.4463553 73.7675621,14.5345037 C74.2451825,14.8118071 74.4075716,15.4237937 74.1302683,15.9014142 L67.9491867,26.5475567 C67.7702385,26.8557726 67.4407762,27.0454545 67.0843783,27.0454545 L40.441152,27.0454545 L18.2969254,65.5380649 C18.1184963,65.8482227 17.7879454,66.0394081 17.4301259,66.0394081 L1.31730635,66.0394081 C1.14329786,66.0394081 0.972301041,65.9940024 0.821214667,65.9076782 C0.341682307,65.6336944 0.175052332,65.0228488 0.449036202,64.5433164 L21.8736785,27.0454545 L3.11110949,27.0454545 C2.93488581,27.0454545 2.76179151,26.9988861 2.60935614,26.9104653 C2.1316239,26.6333546 1.96898802,26.0214334 2.24609875,25.5437012 L8.42000537,14.9000342 C8.59839649,14.5924922 8.92666362,14.4027936 9.28219769,14.4017916 L29.1296768,14.3458529 L37.03836,0.50390832 C37.2163956,0.192306738 37.5477539,1.84228135e-15 37.9066302,1.77635684e-15 L54.2710455,4.6629367e-15 C54.4460565,5.87431557e-15 54.6180029,0.04593009 54.7697024,0.13320052 C55.2484225,0.408601097 55.4132456,1.01993672 55.137845,1.49865686 L47.7509904,14.3389931 Z"/>
      <path d="M23.2779492,51.7045455 L70.9016345,51.7045455 C71.0756932,51.7045455 71.2467376,51.7499773 71.3978547,51.8363488 C71.8773465,52.1104036 72.0438861,52.7212739 71.7698312,53.2007657 L42.4776084,104.451017 C42.299553,104.762546 41.9682351,104.954797 41.6094117,104.954797 L25.076772,104.954797 C24.9033662,104.954797 24.7329405,104.909705 24.5822247,104.823947 C24.102206,104.550816 23.9344903,103.940268 24.2076213,103.460249 L48.2252796,61.25 L18.9822046,61.25 C18.4299199,61.25 17.9822046,60.8022847 17.9822046,60.25 C17.9822046,60.0765135 18.0273384,59.9060114 18.1131716,59.755246 L22.4089161,52.2097914 C22.586744,51.8974376 22.9185223,51.7045455 23.2779492,51.7045455 Z"/>
    </g>
  </g>
</svg>
