<svg xmlns="http://www.w3.org/2000/svg" width="83" height="85" viewBox="0 0 83 85">
  <defs>
    <linearGradient id="favicon-a" x1="-26.199%" x2="157.607%" y1="67.39%" y2="-12.576%">
      <stop offset="0%" stop-color="#5E65FF"/>
      <stop offset="100%" stop-color="#B21AE8"/>
    </linearGradient>
  </defs>
  <g fill="none" fill-rule="evenodd">
    <g transform="translate(2 3)">
      <path fill="url(#favicon-a)" d="M76.3016877,40.5433841 C76.2300795,40.4758749 76.1599631,40.4223077 76.0943222,40.3775461 C76.0465833,40.5147661 75.9831802,40.6483171 75.910826,40.7804005 C76.0339027,40.7253657 76.1636927,40.6439143 76.3016877,40.5433841 Z M75.8287749,42.8665845 C75.5900807,42.6948761 75.4461183,42.5393112 75.2760487,42.4982185 C75.2014568,42.4798736 75.0656995,42.6875381 74.9575412,42.7954062 C75.0910607,42.9201516 75.2051864,43.0962628 75.365559,43.14983 C75.4505938,43.1784481 75.6117124,43.0052721 75.8287749,42.8665845 Z M74.9925994,43.8902309 C74.9732055,43.8307933 74.9530657,43.7713558 74.9321799,43.7155873 C74.8180543,43.7904345 74.7039286,43.8696846 74.5905489,43.9504022 C74.5696631,43.9518698 74.5480315,43.9562726 74.5271457,43.9592078 C74.5301294,43.9687471 74.5346049,43.9782865 74.5390804,43.9878258 C74.4726936,44.0582703 74.3913884,44.120643 74.3570761,44.2020945 C74.3279853,44.2710714 74.3660272,44.3671987 74.3779619,44.4515853 C74.4555375,44.3811409 74.5741387,44.3246385 74.6062132,44.2380505 C74.6270989,44.1683398 74.5696631,44.0766152 74.5390804,43.9878258 C74.5420641,43.9856244 74.5465396,43.9812217 74.5510152,43.9782865 C74.5636958,43.9687471 74.5778682,43.9592078 74.5905489,43.9504022 C74.7255603,43.9320573 74.8590798,43.9100434 74.9925994,43.8902309 Z M74.6114346,48.6569742 C74.6591735,48.6246871 74.7106419,48.5975367 74.7531593,48.5579116 C74.7628562,48.5483723 74.7360031,48.473525 74.7255603,48.473525 C74.663649,48.4749926 74.6062132,48.4874672 74.5465396,48.4970065 C74.5651876,48.5513075 74.589057,48.6048746 74.6114346,48.6569742 Z M74.7867257,49.2799676 C74.2854679,48.8932567 73.8841633,48.7325553 73.3083136,48.8140067 C73.3888729,49.1229351 73.4545138,49.3665556 73.5395486,49.6872248 C73.9565175,49.5514724 74.3033699,49.4384677 74.7867257,49.2799676 Z M74.4085446,52.0713302 C73.165843,51.7704736 72.8018344,51.8871472 72.6974057,53.447199 C73.3038381,53.172759 73.8520888,52.9496849 74.3645353,52.6642379 C74.4570293,52.6143398 74.3966099,52.2973396 74.4085446,52.0713302 Z M72.5086881,56.197469 C72.481835,56.1497722 72.4631871,56.0771264 72.4229074,56.0617166 C72.3848655,56.0507097 72.3274297,56.1050106 72.2781991,56.1292259 C72.3057981,56.1761889 72.3333971,56.2260871 72.3632339,56.2715825 C72.4117186,56.248101 72.4609493,56.2231519 72.5086881,56.197469 Z M72.4378258,57.1015065 C72.3602502,57.0574787 72.2811827,57.0090482 72.2028612,56.9635528 C72.1006703,57.1587427 71.9954957,57.3554002 71.8918129,57.5527915 C71.9596915,57.5894813 72.0208569,57.6254374 72.0879897,57.6613934 C72.2058449,57.4750091 72.3222083,57.2886247 72.4378258,57.1015065 Z M71.8746567,56.1791241 C71.6449136,56.0000777 71.5568951,55.8936772 71.4420235,55.851117 C71.3346112,55.8107582 71.2048212,55.8408438 71.0190873,55.8408438 C71.151115,56.2767191 71.3413244,56.3985293 71.8746567,56.1791241 Z M70.8661739,60.8629484 C70.4961979,60.5261357 70.1769444,60.2979249 69.6033325,60.8798257 C70.1292056,61.0361244 70.4626315,61.4169649 70.8661739,60.8629484 Z M70.8579687,61.8271573 C70.4961979,62.0164768 70.2410935,62.1522292 69.903938,62.3276066 C70.6946124,62.7847619 70.6946124,62.7847619 70.8579687,61.8271573 Z M69.8278542,58.6256023 C70.0710239,58.0048103 70.0799749,57.9989399 69.4548946,56.6135317 C69.4489272,56.601791 69.4355007,56.5959206 69.4295333,56.5841799 C69.1072962,57.1550737 68.8059448,57.7200972 68.4531249,58.2961276 C68.4553627,58.3819818 68.4613301,58.4590304 68.4568545,58.5536902 C68.8007233,58.3394216 68.9954083,58.2183451 69.21993,58.0781899 C69.432517,58.2675095 69.6204886,58.4392179 69.8278542,58.6256023 Z M56.9353852,72.0416072 C56.9040565,71.9887739 56.8876463,71.9036535 56.8413993,71.8867761 C56.8033574,71.8684312 56.7324951,71.9241998 56.6743134,71.9484151 C56.7026583,72.0056512 56.7205604,72.0863688 56.7660615,72.1047137 C56.8063411,72.1215911 56.8749657,72.0643549 56.9353852,72.0416072 Z M56.7384625,72.6719386 C56.3349201,72.4701445 56.0559463,72.3314569 55.8097929,72.2089129 C55.337626,72.540589 54.8617295,72.8671285 54.3724065,73.1753231 C54.6834548,73.2941982 54.9833144,73.4028001 55.2697474,73.3771172 C55.7023806,73.3389598 56.1089066,72.9904064 56.7384625,72.6719386 Z M55.4897936,75.2637085 C55.337626,74.8219629 55.0668573,74.7148286 54.8057856,74.8924074 C54.4887699,75.103007 54.06285,75.3150743 54.3067656,76.0928988 C54.7796784,75.7590213 55.1459248,75.5058614 55.4897936,75.2637085 Z M53.322898,74.1424672 C53.3997277,73.9810319 53.4646227,73.8445457 53.5302636,73.7043905 C53.378842,73.7946475 53.2154857,73.868761 53.0625722,73.9546152 C53.1505907,74.0191893 53.2318959,74.0764255 53.322898,74.1424672 Z M51.7281226,76.5632625 C51.455862,75.1088774 51.3835079,75.0428357 50.4884047,75.4985235 C50.6435559,75.9087158 50.7778214,76.2491975 50.9307349,76.6447139 C51.2015036,76.619031 51.4618294,76.5918805 51.7281226,76.5632625 Z M24.8474291,73.9832333 C24.4341898,73.7498859 24.2581528,73.5935872 24.0642138,73.5576312 C23.7680839,73.5047978 23.4756835,73.6082632 23.5189468,73.9736939 C23.5375948,74.1314602 23.7546573,74.406634 23.8426758,74.3934256 C24.1112067,74.3515992 24.3610897,74.1960343 24.8474291,73.9832333 Z M20.9641732,67.3005468 C18.2035259,65.5320968 15.7151392,63.4723294 13.6795254,60.9084438 C13.7779868,61.0603397 13.8689889,61.225444 13.9413431,61.4287056 C14.2188251,62.1911204 15.0109914,62.7671508 15.2981703,63.6000101 C16.2111755,63.7460356 16.2052082,64.7095107 16.7862793,65.2165642 C17.019752,65.2165642 17.3017095,65.1820757 17.5709864,65.2297725 C17.7544825,65.2613258 17.9454379,65.383136 18.0819411,65.5159532 C18.3721037,65.7940622 18.655553,66.0883147 18.896485,66.4089838 C19.3925213,67.0583939 20.1011446,67.1890097 20.9641732,67.3005468 Z M13.499013,60.6861034 C11.8848436,58.6035884 10.5742634,56.1842607 9.65081534,53.3297915 C9.48596717,53.1412058 9.3129139,52.9577566 9.15104941,52.7662357 C8.76988465,52.3186197 8.49538635,51.7792791 8.20820743,51.2538807 C8.19627272,51.3749571 8.1686737,51.494566 8.12391855,51.6083045 C7.6696537,52.7427542 8.25072483,53.6658704 8.58191299,54.6498918 C8.84373066,55.4335867 9.10480241,56.2165477 9.38601399,56.991437 C9.46284367,57.2005691 9.56951013,57.4911526 9.74256341,57.5659999 C10.7047993,57.9791274 11.0531436,58.7503477 11.0911855,59.7659223 C11.493236,59.831964 11.8788763,59.8539779 12.242139,59.9552419 C12.7583151,60.1012674 13.1737922,60.3162699 13.499013,60.6861034 Z M6.32177754,54.6975886 C6.2934326,54.6601649 6.26061215,54.5801811 6.22107843,54.5750445 C6.16662632,54.5706417 6.10695278,54.6242089 6.05100883,54.6542946 C6.10023951,54.7137321 6.1464865,54.7731696 6.19571718,54.833341 C6.23748866,54.7885794 6.27851422,54.7423502 6.32177754,54.6975886 Z M5.12905259,27.6300299 C5.17529959,27.6535114 5.2185629,27.6703888 5.26257214,27.6850647 C5.31851609,27.561053 5.35655797,27.4245669 5.3729682,27.2719371 C5.29166299,27.391546 5.21483331,27.5060183 5.12905259,27.6300299 Z M5.49380712,27.0914232 C5.84662695,27.1405875 5.9644822,27.3181663 5.99058937,27.5669234 C6.049517,27.5089535 6.10620686,27.4436456 6.15543753,27.3658631 C6.20243045,27.293951 6.22704579,27.2249742 6.24867745,27.1567311 C6.26061215,27.1229764 6.26807135,27.0899556 6.28000606,27.0554671 C6.3202857,26.8059762 6.20392229,26.5821683 5.96895771,26.3855107 C5.97268731,26.3781728 5.97865466,26.370101 5.9838761,26.3642306 C5.97716282,26.3598279 5.96895771,26.3524899 5.96149852,26.3480871 C5.96149852,26.2930524 5.95553116,26.2380176 5.95105565,26.1807815 C5.90853825,26.2079319 5.86303717,26.232881 5.81306058,26.2556287 C5.86303717,26.2879158 5.91152193,26.3180014 5.96149852,26.3480871 C5.96149852,26.3598279 5.96149852,26.3686334 5.96149852,26.3781728 C5.9644822,26.381108 5.9644822,26.3840431 5.96895771,26.3855107 C5.81306058,26.6166567 5.65492569,26.8514716 5.49380712,27.0914232 Z M46.0501849,10.5244952 C46.0748003,10.3748007 46.1076207,10.2287751 46.1725157,10.0974255 C46.2508372,9.94332822 46.6812327,9.78042535 46.7103235,9.81418 C46.9803463,10.1443885 47.3607651,10.5039489 47.3853805,10.8796528 C47.3995529,11.1034608 47.2168027,11.3925767 46.9975024,11.6112481 C47.7374544,11.9319173 48.5154482,12.167466 49.2680808,12.1894799 C49.1039785,12.1586604 48.9450977,12.0757414 48.8123241,11.9267807 C48.5505064,11.6303268 48.6079422,11.377167 48.9115313,11.1357478 C49.0420672,11.0322825 49.127102,10.87525 49.2315307,10.7394976 C49.3091063,10.6426365 49.3866819,10.5413725 49.4553065,10.4503817 C50.5048149,10.9816505 50.6017845,11.4571508 49.8379631,12.0515261 C49.7066813,12.1520563 49.5589893,12.1924151 49.413535,12.1968179 C49.4761922,12.1960841 49.5425791,12.2092924 49.6052363,12.2056234 C50.217636,12.1527901 50.7643949,11.0036644 51.7311063,9.90883978 C50.3608525,9.21833709 49.7887324,8.67679513 49.2621134,8.71935534 C48.1633743,8.80374196 47.0773158,9.15596437 46.0240778,9.55001319 C45.9763389,9.56909191 45.9860359,10.0644047 46.0501849,10.5244952 Z M61.1908547,8.53663996 C63.0347672,10.1583307 64.7720132,12.0419868 66.3459029,14.2272333 C70.3790886,19.8239007 73.1583838,25.4990843 74.330969,31.4112843 C74.3570761,31.2388421 74.3943721,31.0671336 74.4570293,30.89249 C74.5465396,30.6474019 74.46971,30.3480129 74.468964,30.0743067 C74.4659804,29.5540449 74.3526006,29.0125029 74.4756773,28.5259957 C74.8001522,27.2631316 74.33992,26.2079319 73.6738141,25.2136374 C73.193442,24.4981856 72.861508,23.7827339 72.9413213,22.8992426 C72.9651907,22.6541546 72.8398763,22.3599021 72.6988976,22.1397631 C72.3087818,21.5307118 71.8597383,20.9554152 71.4629093,20.3492991 C71.2980611,20.0932041 71.1212783,19.7930812 71.1026303,19.5069005 C71.0511618,18.6975228 70.6304634,18.111953 70.1650097,17.4830892 C69.5541018,16.6546328 69.0923778,15.7219772 68.5903741,14.8216086 C68.0145244,13.7950271 67.4767166,12.8146747 66.3376978,12.1828757 C65.4135038,11.6706856 64.6899621,10.8077407 63.8739264,10.1018283 C63.6949058,9.94112683 63.5337872,9.71438365 63.3167247,9.637335 C62.5551411,9.35995985 61.8674035,8.95930685 61.1908547,8.53663996 Z M72.3938166,50.4114821 C72.1051458,51.1504154 71.8037944,51.8922838 71.4621634,52.642224 C71.54869,52.653231 71.6449136,52.6642379 71.733678,52.6737773 C71.7232351,52.8109973 71.7001116,52.9122612 71.7142841,53.0061872 C71.724727,53.097178 71.7732117,53.183766 71.844074,53.3723517 C72.029062,53.2542105 72.1648193,53.2138517 72.1842132,53.144141 C72.3923247,52.3964021 72.601928,51.6493971 72.7578252,50.8899175 C72.7854242,50.7497624 72.5907393,50.4305608 72.472884,50.4188201 C72.4497605,50.4158849 72.4199237,50.4144173 72.3938166,50.4114821 Z M74.8971217,39.5109322 C74.9575412,39.6400804 75.042576,39.778768 75.1596853,39.8514139 C75.1611771,39.8550829 75.1686363,39.8499463 75.17162,39.8499463 C75.2320395,39.7097911 75.2320395,39.5652332 75.1790792,39.3759136 C75.1484965,39.3575687 75.1171679,39.3428928 75.088077,39.3289506 C75.0500352,39.3164761 74.8859329,39.4801127 74.8971217,39.5109322 Z M2.57054942,29.1930169 C2.56234431,29.1658664 2.56234431,29.1255076 2.54369632,29.1122993 C2.52430242,29.0983571 2.48700646,29.1093641 2.45866152,29.1093641 C2.44747274,29.1387159 2.43777578,29.1658664 2.42807883,29.1908155 C2.47357991,29.1908155 2.52206466,29.1930169 2.57054942,29.1930169 Z M76.4105919,49.0400161 C76.2353009,50.1003523 75.5721787,51.1093227 75.9361873,52.2577146 C75.9988445,52.4558397 75.9063505,52.7662357 75.7758146,52.9467497 C75.1141842,53.891146 75.3125988,54.9382739 75.3871907,55.9575175 C75.4297081,56.5306127 75.347657,57.0119833 75.0612239,57.5315114 C74.4279385,58.6710977 73.8804337,59.8539779 73.3209942,61.0287865 C73.2188033,61.2393861 73.2695258,61.5116247 73.1852369,61.7339651 C72.9868224,62.2402848 72.8361467,62.7943013 72.5086881,63.2132992 C71.8172209,64.1033946 71.7769413,64.1033946 72.5333035,64.9245131 C72.1454254,65.34718 71.7321862,65.527694 71.1630497,65.2268373 C70.8012789,65.040453 70.5745194,65.2180318 70.2619792,65.4748606 C69.1863636,66.3634884 68.4098616,67.6358919 66.8613332,68.0585588 C67.0231977,68.4100474 67.620679,68.6309202 67.2372765,69.1335709 C66.8471607,69.6354879 66.4674878,69.0594575 66.0915445,69.1533834 C65.199425,69.8504903 65.199425,69.8504903 65.5104733,70.7559954 C65.1874903,70.9240349 64.8100551,71.0495141 64.5422701,71.291667 C64.2998463,71.5096046 64.182737,71.8596257 63.9597071,72.2382647 C63.7911294,71.9887739 63.6538802,71.7877136 63.4659086,71.5125398 C63.0511774,72.1061813 62.6707586,72.6535937 62.2627407,73.2354945 C61.7570075,73.2655801 61.2035353,73.2956658 60.6202265,73.3286866 C60.4934202,73.6581613 60.4128609,73.9560828 60.264423,74.218782 C60.1353789,74.4447914 59.9533746,74.6553911 59.7504846,74.8219629 C59.3693198,75.1316251 58.9530968,75.4023961 58.5182259,75.7149935 C58.2422358,75.6159309 57.8744975,75.4324818 57.4866195,75.3796484 C57.3665265,75.3620373 57.1942192,75.6959148 56.983124,75.9424705 C56.3625191,75.8155236 55.7523572,75.8067181 55.5927304,76.745244 C55.5479753,77.0050081 55.0288154,77.3631009 54.7252263,77.3675036 C53.7555312,77.3829134 53.0804743,77.9589438 52.3755805,78.4322426 C51.5573071,78.9840578 50.7994531,79.0897245 49.9267275,78.6311015 C49.3240247,78.3148352 48.7086413,78.0968975 48.0753558,78.6443099 C47.935123,78.7631849 47.6382471,78.7360345 47.4167091,78.7191571 C47.3644947,78.7176896 47.2555905,78.4293075 47.3018375,78.3764741 C47.4405785,78.2069671 47.6270583,78.0624091 47.823981,77.9604114 C47.9634679,77.8921683 48.1484559,77.9163836 48.3431408,77.8892331 C47.7538646,76.9631817 47.7538646,76.9631817 46.1777371,77.5568232 C46.1777371,77.3359504 46.1777371,77.1583716 46.1777371,76.9587789 C45.3781117,77.1869896 44.5919127,77.366036 43.8228699,77.4650986 C43.9190935,77.6353394 44.0690233,77.7512793 44.2965287,77.7674228 C44.6411434,77.7901705 44.9984387,77.5839737 45.4631465,77.4430847 C45.5422139,78.1211128 45.6086007,78.7074164 45.6667824,79.2108009 C44.9812826,79.5087224 44.4680901,79.8499379 43.9138721,79.9401948 C43.2455284,80.0487968 42.5294459,79.9959634 41.853643,79.8895629 C41.6462774,79.8594772 41.456068,79.4441483 41.3426883,79.1733773 C41.1136911,78.6230298 40.8600785,78.1196452 40.3394268,77.7571497 C39.7702904,77.3601657 39.5480065,77.337418 39.1019467,77.8187886 C38.9833456,77.9450016 38.90577,78.1042355 38.8013413,78.2429231 C38.378405,78.7888678 37.9472637,78.9136133 37.3512742,78.5657936 C36.9999462,78.358863 36.6956111,78.0536035 36.4129077,77.7571497 C36.0265215,77.3484249 35.6684802,77.0189502 35.0635397,77.4049273 C34.9068966,77.503256 34.662981,77.4805083 34.4608369,77.5193996 C34.0207445,77.600851 33.5687174,77.6397422 33.1547322,77.7843002 C32.6161785,77.9736197 32.1656432,78.0469994 31.7270427,77.5634274 C31.567416,77.3902513 31.2481625,77.3315476 30.9900744,77.283117 C30.7215435,77.2339526 30.3814043,77.3484249 30.162104,77.232485 C28.6583307,76.4355818 26.9300357,76.6806699 25.3628593,76.2081049 C25.1696662,76.1523363 24.9511118,76.1648109 24.7452381,76.1648109 C23.8106013,76.1604081 23.054985,75.7949773 22.4664547,75.0897987 C22.2680402,74.8491134 22.0435184,74.6128308 21.9062693,74.3420599 C21.4244054,73.3947283 20.3092561,73.2112792 19.644642,72.4870218 C19.5081388,72.3380611 19.3529876,72.2118481 19.2507966,72.1164545 C19.1970904,71.5668408 20.0690701,71.2476392 19.4342928,70.6209768 C18.516812,71.905121 17.2957422,71.0597873 16.150756,71.1676554 C16.0836233,70.9240349 16.0038099,70.7376505 15.9836701,70.5424606 C15.9441364,70.1755622 15.7382627,69.9847751 15.3906643,69.9135968 C14.4164937,69.7154717 13.7764949,69.154851 13.4408313,68.2324686 C13.2707617,67.7547669 12.9201796,67.4568455 12.4368239,67.2389079 C12.1183164,67.0943499 11.8132354,66.8000974 11.6357066,66.4977732 C10.6175267,64.7784876 9.63440511,63.0393894 8.65501308,61.2995574 C8.48494348,61.0001684 8.38573622,60.6677585 8.24624931,60.3507583 C7.86732231,59.5024893 7.6234067,58.5881786 6.89762723,57.9196899 C6.73203315,57.7670601 6.68205655,57.4955554 6.56718498,57.2856895 C6.1890039,56.601791 6.14797834,55.7395799 5.44159277,55.2215194 C5.36476309,55.1657509 5.28494972,55.0446744 5.29166299,54.9588202 C5.37595187,53.981403 4.52187429,53.4523356 4.17800549,52.6825829 C3.98033688,52.2437724 3.77297132,51.8123 3.56784351,51.3764247 C3.4783332,51.191508 3.42537293,50.9588944 3.27544315,50.837818 C2.61530458,50.2918732 2.38705327,49.5514724 2.1908765,48.7648423 C2.09166923,48.3781314 1.79703111,48.040585 1.65605237,47.6590107 C1.19059873,46.4232971 0.836287065,45.1611667 1.08840779,43.821254 C1.16150788,43.4272052 1.16896707,43.0852559 0.878058545,42.7557812 C0.722907333,42.583339 0.633397018,42.3353157 0.573723474,42.1078387 C0.13586885,40.3614026 -0.141613127,38.5951539 0.0754493874,36.7878127 C0.107523917,36.5192431 0.216428134,36.2594791 0.285798628,35.9909095 C0.363374234,35.689319 0.558805088,35.3547077 0.486450917,35.0920085 C0.214936295,34.1241307 0.779597199,33.2699913 0.79973702,32.3490765 C0.801974778,32.1282037 0.9884546,31.9161364 1.07050572,31.6879256 C1.25698555,31.1757356 1.51358178,30.6701496 1.59115739,30.1359456 C1.67395443,29.5877995 1.72169326,29.0778108 2.04915183,28.5795629 C2.23041022,28.3014539 2.15805605,27.8604421 2.20803264,27.4208979 C2.37213489,27.3394464 2.59740251,27.2484557 2.79507113,27.1200412 C3.13371848,26.9013698 3.51786692,26.7047123 3.77520907,26.4089922 C3.91022047,26.2504921 4.0236002,26.1316171 4.13026666,26.0325545 C4.09371661,25.9356934 4.06686352,25.8270915 4.05865841,25.6957418 C4.05045329,25.5196306 3.99525527,25.3200379 3.89903168,25.1674082 C3.67227221,25.2246444 3.42238925,25.2004291 3.1113409,25.1365888 C3.27171355,24.940665 3.42015149,24.8239914 3.57082719,24.7586835 C3.35525651,24.4541578 3.40299535,24.2736439 3.78938154,23.9192201 C4.30928729,23.4451874 4.6501724,22.8897033 4.90826048,22.2931266 C4.70984595,22.3107377 4.58527743,22.1852585 4.47637321,22.0076797 C4.51889061,21.9027467 4.55991617,21.7941448 4.60392541,21.6870105 C4.74788783,21.7479156 4.89632577,21.8102884 5.06937905,21.883668 C5.14546281,21.6767374 5.21632515,21.4646701 5.28047421,21.2511353 C5.45576524,20.6839104 5.6474665,20.5393525 6.58657889,20.1783245 C6.62163709,20.8974453 6.68504023,21.5123669 6.13007628,21.9746588 C5.69520533,22.3378882 5.68103286,22.7847704 6.00923735,23.1626757 C6.30760507,23.5046249 6.37622964,23.8641853 6.36951637,24.2237457 C6.65221978,24.2347526 6.92970176,24.2626369 7.20270822,24.3176717 C7.29371037,24.0689146 7.38172885,23.8216251 7.47720652,23.5750694 C8.95636448,19.7659308 10.7047993,15.9707343 12.9358439,12.6752533 C14.7626002,9.9697449 17.1838543,7.33981755 19.8721474,5.85461304 C23.4294365,3.8887717 27.159033,2.38375468 31.465225,1.53328431 C31.465225,1.53181672 31.4644791,1.53108292 31.4644791,1.52961533 C31.4055515,1.18473088 32.1395361,0.63071438 32.6042438,0.684281538 C32.7735675,0.704827846 32.9921218,0.941844178 33.0503035,1.12235816 C33.0622382,1.16418458 33.02718,1.21921933 33.0107698,1.2691175 C35.4260565,0.893413596 38.0099209,0.699691269 40.8705214,0.765732971 C43.4663205,0.765732971 46.1307442,1.11722159 48.7720444,1.83120577 C48.7146086,1.79451594 48.6512055,1.77763861 48.5945156,1.73287701 C48.2789918,1.4907241 47.8187596,1.42835139 47.4733989,1.20967997 C47.2384344,1.05925165 47.0929801,0.773804735 46.9057544,0.552198134 C47.1108822,0.395165641 47.3048212,0.219788231 47.5248674,0.0877048263 C47.6367553,0.0194617338 47.7978738,-0.00768874387 47.9313934,0.00185061315 C49.4187565,0.123660864 50.9598257,-0.000350776932 52.3024804,0.81269596 C52.6135288,0.999814117 52.9014536,1.30727493 53.0610804,1.6257427 C53.3281195,2.15334252 53.7107761,2.4681413 54.2836421,2.45346537 C55.0728247,2.43878943 55.688954,2.78881046 56.3185099,3.18652826 C57.1390211,3.70312114 57.2874591,3.66569751 58.0535182,2.86072253 C57.8580873,2.52611124 57.6917473,2.23699534 57.5015379,1.91118961 C57.6626565,1.85982384 57.7730525,1.78424278 57.8401853,1.81139326 C60.0958452,2.70735902 62.1575661,3.9342671 64.0842757,5.39011974 C64.1961635,5.47303876 64.3043218,5.56989993 64.386373,5.67703424 C65.1270708,6.63684032 65.9520576,7.52033154 66.872522,8.31943614 C67.0992814,8.51609365 67.2283255,8.82648965 67.399141,9.08478609 C67.5132666,9.25576072 67.5789075,9.50231641 67.7385343,9.59624238 C69.0274828,10.3527868 69.7965256,11.6303268 70.8452881,12.6275565 C71.5203451,13.268161 71.8850996,14.2411755 72.3416022,15.0887106 C72.8167528,15.9722019 73.2702717,16.8689014 73.6671008,17.7905501 C74.2235566,19.0886364 74.7166092,20.4124057 75.2394987,21.7244341 C75.3782396,22.0781241 75.5072837,22.4362169 75.6631808,22.7781662 C76.0152547,23.540581 76.1547416,24.3162041 76.2300795,25.164473 C76.3501725,26.514659 76.7313372,27.8310902 76.4173052,29.2194336 C76.3397296,29.55698 76.6753933,29.9789131 76.7962322,30.3685592 C76.9387028,30.8257145 77.149052,31.2850713 77.1632245,31.7473632 C77.204996,33.1577204 77.1572572,34.5688115 77.158749,35.9806363 C77.1602408,36.439993 77.0968377,36.8685303 76.9446702,37.2801903 C77.2609399,37.4863871 77.2989818,37.7659637 77.4183289,38.5951539 C77.5973495,39.8543491 77.9024305,41.1025372 77.9911949,42.3654013 C78.046393,43.1021332 77.8315682,43.868217 77.6398669,44.5976109 C77.2497512,46.0857506 76.6574912,47.534999 76.4105919,49.0400161 Z M9.18983721,14.7680415 C10.0812108,14.2411755 10.8771067,13.5836936 11.8788763,13.2087235 C12.4398076,12.9995915 12.5531873,12.3721953 12.2182695,12.0243756 C11.7207414,11.5063152 11.6200423,10.8818542 11.5268024,10.2287751 C11.4880146,9.95286758 11.3671756,9.68429799 11.2851245,9.40252006 C9.96484736,9.91030737 9.86041866,10.0622033 9.95962592,11.1518914 C9.98051166,11.3544193 10.0685301,11.6963685 9.98647902,11.7425977 C9.29650367,12.1469197 9.77985937,12.7273529 9.7500226,13.2813694 C8.84671434,13.420057 8.58638851,13.9960874 8.69529272,14.8575647 C8.86685416,14.8289466 9.05930134,14.8450901 9.18983721,14.7680415 Z M13.239433,9.77382118 L13.1976616,9.84133048 L13.2789668,9.84279807 L13.239433,9.77382118 Z M12.9522541,10.972845 C12.9522541,10.972845 12.9522541,10.972845 12.9522541,10.9743126 C12.9373357,11.0036644 13.1253074,11.1291437 13.2923933,11.2766368 C13.4184537,11.0528288 13.5295957,10.9024005 13.5788263,10.7358287 C13.5900151,10.7013402 13.3170087,10.5244952 13.2871719,10.5501781 C13.2297361,10.5978749 13.175284,10.6558448 13.1260533,10.7152823 C13.0268461,10.6411689 12.9418113,10.5707244 12.8537928,10.5487105 C12.8120213,10.5362359 12.6643293,10.7013402 12.6792477,10.7321597 C12.7292243,10.8304884 12.8217182,10.9244144 12.9201796,10.9838519 C12.9268929,10.9882547 12.9388276,10.9816505 12.9522541,10.972845 Z M23.4391334,3.81025545 C23.8076176,3.46537101 24.1261251,3.06985459 24.5326511,2.6237062 C23.692746,2.1137175 23.3160568,2.12032167 22.8729807,2.52684504 C22.5044966,2.86659291 22.519415,3.25330376 22.7454285,3.65028777 C22.9080389,3.9342671 23.1765699,4.05607735 23.4391334,3.81025545 Z M14.2874497,8.09342676 C14.6544419,7.38751434 14.6880083,7.37944257 15.5458155,7.80357706 C15.1780773,8.20202867 14.783486,8.28935047 14.2874497,8.09342676 Z"/>
      <g fill="#FFF" transform="rotate(-6 63.622 -48.865)">
        <path d="M20.3717118,66.8846523 L18.5816556,66.6696284 L18.5816556,66.3112554 L21.016132,65.0927869 L21.3741432,64.4477154 L24.8826532,62.0824531 L25.5986756,62.0824531 L26.2430958,61.0790085 L28.0331519,60.1472385 L32.5440933,55.5600632 L34.2625472,54.0548963 L34.9785696,54.0548963 L35.3365809,53.1231263 L39.489511,49.8260941 L40.2055335,49.8260941 L40.9215559,48.3209272 C43.4515145,46.4573779 45.5279589,44.4027262 47.1509512,42.1569103 L48.2249849,38.7882035 C46.3633172,37.9758871 44.2630057,37.569735 41.9239874,37.569735 C36.3867194,37.3786018 31.0643391,37.9042104 25.9566868,39.1465765 L25.9566868,39.7199735 L16.8632018,43.3753788 L16.5051906,44.8805457 L14.7867367,44.8805457 L12.7102716,44.3071488 C10.8486039,42.3002495 9.6791123,39.9589022 9.20176162,37.2830366 C12.9250969,33.1736715 16.051697,28.8971289 18.5816556,24.4532806 L19.2976781,24.4532806 L20.729723,20.5111768 C15.6220707,20.7023101 10.7292996,20.4872884 6.05126286,19.8661053 L4.69082021,17.14247 C8.41415554,16.9513367 11.9584312,16.533239 15.3237535,15.8881642 C18.6890758,15.2430894 22.1140156,14.6338613 25.5986756,14.0604615 C27.8899589,11.0023294 29.393591,7.63365618 30.109617,3.95434092 L30.4676282,3.95434092 C32.7589115,4.38439075 34.8353558,5.31615142 36.6970235,6.74965088 L37.0550347,8.25481778 C35.6707177,9.68831723 34.8592338,11.3129256 34.6205584,13.1286915 L39.489511,13.1286915 L41.5659761,12.8419931 C45.0506361,12.6508598 48.0817675,13.6781857 50.6594612,15.9240015 L50.6594612,18.0025653 L31.4700597,19.5077322 C28.7014257,23.8560139 26.2669737,28.3475781 24.1666307,32.9825597 L24.8826532,32.9825597 L41.2795672,32.4091628 C46.3872195,32.6002961 50.7787799,34.4160348 54.4543801,37.8564335 C55.6477568,39.7199828 56.2444362,41.8701997 56.2444362,44.3071488 L53.4519487,51.331261 L52.377915,51.6179594 C51.7096241,53.672642 50.4446638,55.512272 48.5829961,57.1369047 L47.5089624,57.4952778 L47.1509512,58.3553732 C43.4276159,60.601189 39.5969341,62.5483299 35.658791,64.1968543 C31.7206478,65.8453786 27.4364897,66.7413023 22.8061881,66.8846523 L21.7321544,66.6696284 L20.3717118,66.8846523 Z" transform="rotate(9 30.468 35.42)"/>
        <path d="M30.4012652,34.3760565 C34.0783387,38.2799247 41.389931,41.6197078 43.0846772,45.4290109 C44.577896,48.7853382 40.9506873,52.6323383 37.3181601,55.7771587 C29.5628537,62.49123 53.4575817,49.9023464 53.4575817,49.0630874 C53.4575817,48.5035815 45.7721429,43.1882751 30.4012652,33.1171681"/>
        <path d="M31.7293532,39.5862832 C41.5387681,51.8699548 39.9883285,54.0866344 35.6228701,60.7153665 C31.2574117,67.3440985 44.7077429,54.9152259 44.7077429,54.0866344 C44.7077429,53.5342401 40.381613,48.2864939 31.7293532,38.3433959 C25.1897433,30.982873 25.1897433,31.3971687 31.7293532,39.5862832 Z"/>
      </g>
    </g>
    <g transform="translate(2 3)">
      <path fill="url(#favicon-a)" d="M76.3016877,40.5433841 C76.2300795,40.4758749 76.1599631,40.4223077 76.0943222,40.3775461 C76.0465833,40.5147661 75.9831802,40.6483171 75.910826,40.7804005 C76.0339027,40.7253657 76.1636927,40.6439143 76.3016877,40.5433841 Z M75.8287749,42.8665845 C75.5900807,42.6948761 75.4461183,42.5393112 75.2760487,42.4982185 C75.2014568,42.4798736 75.0656995,42.6875381 74.9575412,42.7954062 C75.0910607,42.9201516 75.2051864,43.0962628 75.365559,43.14983 C75.4505938,43.1784481 75.6117124,43.0052721 75.8287749,42.8665845 Z M74.9925994,43.8902309 C74.9732055,43.8307933 74.9530657,43.7713558 74.9321799,43.7155873 C74.8180543,43.7904345 74.7039286,43.8696846 74.5905489,43.9504022 C74.5696631,43.9518698 74.5480315,43.9562726 74.5271457,43.9592078 C74.5301294,43.9687471 74.5346049,43.9782865 74.5390804,43.9878258 C74.4726936,44.0582703 74.3913884,44.120643 74.3570761,44.2020945 C74.3279853,44.2710714 74.3660272,44.3671987 74.3779619,44.4515853 C74.4555375,44.3811409 74.5741387,44.3246385 74.6062132,44.2380505 C74.6270989,44.1683398 74.5696631,44.0766152 74.5390804,43.9878258 C74.5420641,43.9856244 74.5465396,43.9812217 74.5510152,43.9782865 C74.5636958,43.9687471 74.5778682,43.9592078 74.5905489,43.9504022 C74.7255603,43.9320573 74.8590798,43.9100434 74.9925994,43.8902309 Z M74.6114346,48.6569742 C74.6591735,48.6246871 74.7106419,48.5975367 74.7531593,48.5579116 C74.7628562,48.5483723 74.7360031,48.473525 74.7255603,48.473525 C74.663649,48.4749926 74.6062132,48.4874672 74.5465396,48.4970065 C74.5651876,48.5513075 74.589057,48.6048746 74.6114346,48.6569742 Z M74.7867257,49.2799676 C74.2854679,48.8932567 73.8841633,48.7325553 73.3083136,48.8140067 C73.3888729,49.1229351 73.4545138,49.3665556 73.5395486,49.6872248 C73.9565175,49.5514724 74.3033699,49.4384677 74.7867257,49.2799676 Z M74.4085446,52.0713302 C73.165843,51.7704736 72.8018344,51.8871472 72.6974057,53.447199 C73.3038381,53.172759 73.8520888,52.9496849 74.3645353,52.6642379 C74.4570293,52.6143398 74.3966099,52.2973396 74.4085446,52.0713302 Z M72.5086881,56.197469 C72.481835,56.1497722 72.4631871,56.0771264 72.4229074,56.0617166 C72.3848655,56.0507097 72.3274297,56.1050106 72.2781991,56.1292259 C72.3057981,56.1761889 72.3333971,56.2260871 72.3632339,56.2715825 C72.4117186,56.248101 72.4609493,56.2231519 72.5086881,56.197469 Z M72.4378258,57.1015065 C72.3602502,57.0574787 72.2811827,57.0090482 72.2028612,56.9635528 C72.1006703,57.1587427 71.9954957,57.3554002 71.8918129,57.5527915 C71.9596915,57.5894813 72.0208569,57.6254374 72.0879897,57.6613934 C72.2058449,57.4750091 72.3222083,57.2886247 72.4378258,57.1015065 Z M71.8746567,56.1791241 C71.6449136,56.0000777 71.5568951,55.8936772 71.4420235,55.851117 C71.3346112,55.8107582 71.2048212,55.8408438 71.0190873,55.8408438 C71.151115,56.2767191 71.3413244,56.3985293 71.8746567,56.1791241 Z M70.8661739,60.8629484 C70.4961979,60.5261357 70.1769444,60.2979249 69.6033325,60.8798257 C70.1292056,61.0361244 70.4626315,61.4169649 70.8661739,60.8629484 Z M70.8579687,61.8271573 C70.4961979,62.0164768 70.2410935,62.1522292 69.903938,62.3276066 C70.6946124,62.7847619 70.6946124,62.7847619 70.8579687,61.8271573 Z M69.8278542,58.6256023 C70.0710239,58.0048103 70.0799749,57.9989399 69.4548946,56.6135317 C69.4489272,56.601791 69.4355007,56.5959206 69.4295333,56.5841799 C69.1072962,57.1550737 68.8059448,57.7200972 68.4531249,58.2961276 C68.4553627,58.3819818 68.4613301,58.4590304 68.4568545,58.5536902 C68.8007233,58.3394216 68.9954083,58.2183451 69.21993,58.0781899 C69.432517,58.2675095 69.6204886,58.4392179 69.8278542,58.6256023 Z M56.9353852,72.0416072 C56.9040565,71.9887739 56.8876463,71.9036535 56.8413993,71.8867761 C56.8033574,71.8684312 56.7324951,71.9241998 56.6743134,71.9484151 C56.7026583,72.0056512 56.7205604,72.0863688 56.7660615,72.1047137 C56.8063411,72.1215911 56.8749657,72.0643549 56.9353852,72.0416072 Z M56.7384625,72.6719386 C56.3349201,72.4701445 56.0559463,72.3314569 55.8097929,72.2089129 C55.337626,72.540589 54.8617295,72.8671285 54.3724065,73.1753231 C54.6834548,73.2941982 54.9833144,73.4028001 55.2697474,73.3771172 C55.7023806,73.3389598 56.1089066,72.9904064 56.7384625,72.6719386 Z M55.4897936,75.2637085 C55.337626,74.8219629 55.0668573,74.7148286 54.8057856,74.8924074 C54.4887699,75.103007 54.06285,75.3150743 54.3067656,76.0928988 C54.7796784,75.7590213 55.1459248,75.5058614 55.4897936,75.2637085 Z M53.322898,74.1424672 C53.3997277,73.9810319 53.4646227,73.8445457 53.5302636,73.7043905 C53.378842,73.7946475 53.2154857,73.868761 53.0625722,73.9546152 C53.1505907,74.0191893 53.2318959,74.0764255 53.322898,74.1424672 Z M51.7281226,76.5632625 C51.455862,75.1088774 51.3835079,75.0428357 50.4884047,75.4985235 C50.6435559,75.9087158 50.7778214,76.2491975 50.9307349,76.6447139 C51.2015036,76.619031 51.4618294,76.5918805 51.7281226,76.5632625 Z M24.8474291,73.9832333 C24.4341898,73.7498859 24.2581528,73.5935872 24.0642138,73.5576312 C23.7680839,73.5047978 23.4756835,73.6082632 23.5189468,73.9736939 C23.5375948,74.1314602 23.7546573,74.406634 23.8426758,74.3934256 C24.1112067,74.3515992 24.3610897,74.1960343 24.8474291,73.9832333 Z M20.9641732,67.3005468 C18.2035259,65.5320968 15.7151392,63.4723294 13.6795254,60.9084438 C13.7779868,61.0603397 13.8689889,61.225444 13.9413431,61.4287056 C14.2188251,62.1911204 15.0109914,62.7671508 15.2981703,63.6000101 C16.2111755,63.7460356 16.2052082,64.7095107 16.7862793,65.2165642 C17.019752,65.2165642 17.3017095,65.1820757 17.5709864,65.2297725 C17.7544825,65.2613258 17.9454379,65.383136 18.0819411,65.5159532 C18.3721037,65.7940622 18.655553,66.0883147 18.896485,66.4089838 C19.3925213,67.0583939 20.1011446,67.1890097 20.9641732,67.3005468 Z M13.499013,60.6861034 C11.8848436,58.6035884 10.5742634,56.1842607 9.65081534,53.3297915 C9.48596717,53.1412058 9.3129139,52.9577566 9.15104941,52.7662357 C8.76988465,52.3186197 8.49538635,51.7792791 8.20820743,51.2538807 C8.19627272,51.3749571 8.1686737,51.494566 8.12391855,51.6083045 C7.6696537,52.7427542 8.25072483,53.6658704 8.58191299,54.6498918 C8.84373066,55.4335867 9.10480241,56.2165477 9.38601399,56.991437 C9.46284367,57.2005691 9.56951013,57.4911526 9.74256341,57.5659999 C10.7047993,57.9791274 11.0531436,58.7503477 11.0911855,59.7659223 C11.493236,59.831964 11.8788763,59.8539779 12.242139,59.9552419 C12.7583151,60.1012674 13.1737922,60.3162699 13.499013,60.6861034 Z M6.32177754,54.6975886 C6.2934326,54.6601649 6.26061215,54.5801811 6.22107843,54.5750445 C6.16662632,54.5706417 6.10695278,54.6242089 6.05100883,54.6542946 C6.10023951,54.7137321 6.1464865,54.7731696 6.19571718,54.833341 C6.23748866,54.7885794 6.27851422,54.7423502 6.32177754,54.6975886 Z M5.12905259,27.6300299 C5.17529959,27.6535114 5.2185629,27.6703888 5.26257214,27.6850647 C5.31851609,27.561053 5.35655797,27.4245669 5.3729682,27.2719371 C5.29166299,27.391546 5.21483331,27.5060183 5.12905259,27.6300299 Z M5.49380712,27.0914232 C5.84662695,27.1405875 5.9644822,27.3181663 5.99058937,27.5669234 C6.049517,27.5089535 6.10620686,27.4436456 6.15543753,27.3658631 C6.20243045,27.293951 6.22704579,27.2249742 6.24867745,27.1567311 C6.26061215,27.1229764 6.26807135,27.0899556 6.28000606,27.0554671 C6.3202857,26.8059762 6.20392229,26.5821683 5.96895771,26.3855107 C5.97268731,26.3781728 5.97865466,26.370101 5.9838761,26.3642306 C5.97716282,26.3598279 5.96895771,26.3524899 5.96149852,26.3480871 C5.96149852,26.2930524 5.95553116,26.2380176 5.95105565,26.1807815 C5.90853825,26.2079319 5.86303717,26.232881 5.81306058,26.2556287 C5.86303717,26.2879158 5.91152193,26.3180014 5.96149852,26.3480871 C5.96149852,26.3598279 5.96149852,26.3686334 5.96149852,26.3781728 C5.9644822,26.381108 5.9644822,26.3840431 5.96895771,26.3855107 C5.81306058,26.6166567 5.65492569,26.8514716 5.49380712,27.0914232 Z M46.0501849,10.5244952 C46.0748003,10.3748007 46.1076207,10.2287751 46.1725157,10.0974255 C46.2508372,9.94332822 46.6812327,9.78042535 46.7103235,9.81418 C46.9803463,10.1443885 47.3607651,10.5039489 47.3853805,10.8796528 C47.3995529,11.1034608 47.2168027,11.3925767 46.9975024,11.6112481 C47.7374544,11.9319173 48.5154482,12.167466 49.2680808,12.1894799 C49.1039785,12.1586604 48.9450977,12.0757414 48.8123241,11.9267807 C48.5505064,11.6303268 48.6079422,11.377167 48.9115313,11.1357478 C49.0420672,11.0322825 49.127102,10.87525 49.2315307,10.7394976 C49.3091063,10.6426365 49.3866819,10.5413725 49.4553065,10.4503817 C50.5048149,10.9816505 50.6017845,11.4571508 49.8379631,12.0515261 C49.7066813,12.1520563 49.5589893,12.1924151 49.413535,12.1968179 C49.4761922,12.1960841 49.5425791,12.2092924 49.6052363,12.2056234 C50.217636,12.1527901 50.7643949,11.0036644 51.7311063,9.90883978 C50.3608525,9.21833709 49.7887324,8.67679513 49.2621134,8.71935534 C48.1633743,8.80374196 47.0773158,9.15596437 46.0240778,9.55001319 C45.9763389,9.56909191 45.9860359,10.0644047 46.0501849,10.5244952 Z M61.1908547,8.53663996 C63.0347672,10.1583307 64.7720132,12.0419868 66.3459029,14.2272333 C70.3790886,19.8239007 73.1583838,25.4990843 74.330969,31.4112843 C74.3570761,31.2388421 74.3943721,31.0671336 74.4570293,30.89249 C74.5465396,30.6474019 74.46971,30.3480129 74.468964,30.0743067 C74.4659804,29.5540449 74.3526006,29.0125029 74.4756773,28.5259957 C74.8001522,27.2631316 74.33992,26.2079319 73.6738141,25.2136374 C73.193442,24.4981856 72.861508,23.7827339 72.9413213,22.8992426 C72.9651907,22.6541546 72.8398763,22.3599021 72.6988976,22.1397631 C72.3087818,21.5307118 71.8597383,20.9554152 71.4629093,20.3492991 C71.2980611,20.0932041 71.1212783,19.7930812 71.1026303,19.5069005 C71.0511618,18.6975228 70.6304634,18.111953 70.1650097,17.4830892 C69.5541018,16.6546328 69.0923778,15.7219772 68.5903741,14.8216086 C68.0145244,13.7950271 67.4767166,12.8146747 66.3376978,12.1828757 C65.4135038,11.6706856 64.6899621,10.8077407 63.8739264,10.1018283 C63.6949058,9.94112683 63.5337872,9.71438365 63.3167247,9.637335 C62.5551411,9.35995985 61.8674035,8.95930685 61.1908547,8.53663996 Z M72.3938166,50.4114821 C72.1051458,51.1504154 71.8037944,51.8922838 71.4621634,52.642224 C71.54869,52.653231 71.6449136,52.6642379 71.733678,52.6737773 C71.7232351,52.8109973 71.7001116,52.9122612 71.7142841,53.0061872 C71.724727,53.097178 71.7732117,53.183766 71.844074,53.3723517 C72.029062,53.2542105 72.1648193,53.2138517 72.1842132,53.144141 C72.3923247,52.3964021 72.601928,51.6493971 72.7578252,50.8899175 C72.7854242,50.7497624 72.5907393,50.4305608 72.472884,50.4188201 C72.4497605,50.4158849 72.4199237,50.4144173 72.3938166,50.4114821 Z M74.8971217,39.5109322 C74.9575412,39.6400804 75.042576,39.778768 75.1596853,39.8514139 C75.1611771,39.8550829 75.1686363,39.8499463 75.17162,39.8499463 C75.2320395,39.7097911 75.2320395,39.5652332 75.1790792,39.3759136 C75.1484965,39.3575687 75.1171679,39.3428928 75.088077,39.3289506 C75.0500352,39.3164761 74.8859329,39.4801127 74.8971217,39.5109322 Z M2.57054942,29.1930169 C2.56234431,29.1658664 2.56234431,29.1255076 2.54369632,29.1122993 C2.52430242,29.0983571 2.48700646,29.1093641 2.45866152,29.1093641 C2.44747274,29.1387159 2.43777578,29.1658664 2.42807883,29.1908155 C2.47357991,29.1908155 2.52206466,29.1930169 2.57054942,29.1930169 Z M76.4105919,49.0400161 C76.2353009,50.1003523 75.5721787,51.1093227 75.9361873,52.2577146 C75.9988445,52.4558397 75.9063505,52.7662357 75.7758146,52.9467497 C75.1141842,53.891146 75.3125988,54.9382739 75.3871907,55.9575175 C75.4297081,56.5306127 75.347657,57.0119833 75.0612239,57.5315114 C74.4279385,58.6710977 73.8804337,59.8539779 73.3209942,61.0287865 C73.2188033,61.2393861 73.2695258,61.5116247 73.1852369,61.7339651 C72.9868224,62.2402848 72.8361467,62.7943013 72.5086881,63.2132992 C71.8172209,64.1033946 71.7769413,64.1033946 72.5333035,64.9245131 C72.1454254,65.34718 71.7321862,65.527694 71.1630497,65.2268373 C70.8012789,65.040453 70.5745194,65.2180318 70.2619792,65.4748606 C69.1863636,66.3634884 68.4098616,67.6358919 66.8613332,68.0585588 C67.0231977,68.4100474 67.620679,68.6309202 67.2372765,69.1335709 C66.8471607,69.6354879 66.4674878,69.0594575 66.0915445,69.1533834 C65.199425,69.8504903 65.199425,69.8504903 65.5104733,70.7559954 C65.1874903,70.9240349 64.8100551,71.0495141 64.5422701,71.291667 C64.2998463,71.5096046 64.182737,71.8596257 63.9597071,72.2382647 C63.7911294,71.9887739 63.6538802,71.7877136 63.4659086,71.5125398 C63.0511774,72.1061813 62.6707586,72.6535937 62.2627407,73.2354945 C61.7570075,73.2655801 61.2035353,73.2956658 60.6202265,73.3286866 C60.4934202,73.6581613 60.4128609,73.9560828 60.264423,74.218782 C60.1353789,74.4447914 59.9533746,74.6553911 59.7504846,74.8219629 C59.3693198,75.1316251 58.9530968,75.4023961 58.5182259,75.7149935 C58.2422358,75.6159309 57.8744975,75.4324818 57.4866195,75.3796484 C57.3665265,75.3620373 57.1942192,75.6959148 56.983124,75.9424705 C56.3625191,75.8155236 55.7523572,75.8067181 55.5927304,76.745244 C55.5479753,77.0050081 55.0288154,77.3631009 54.7252263,77.3675036 C53.7555312,77.3829134 53.0804743,77.9589438 52.3755805,78.4322426 C51.5573071,78.9840578 50.7994531,79.0897245 49.9267275,78.6311015 C49.3240247,78.3148352 48.7086413,78.0968975 48.0753558,78.6443099 C47.935123,78.7631849 47.6382471,78.7360345 47.4167091,78.7191571 C47.3644947,78.7176896 47.2555905,78.4293075 47.3018375,78.3764741 C47.4405785,78.2069671 47.6270583,78.0624091 47.823981,77.9604114 C47.9634679,77.8921683 48.1484559,77.9163836 48.3431408,77.8892331 C47.7538646,76.9631817 47.7538646,76.9631817 46.1777371,77.5568232 C46.1777371,77.3359504 46.1777371,77.1583716 46.1777371,76.9587789 C45.3781117,77.1869896 44.5919127,77.366036 43.8228699,77.4650986 C43.9190935,77.6353394 44.0690233,77.7512793 44.2965287,77.7674228 C44.6411434,77.7901705 44.9984387,77.5839737 45.4631465,77.4430847 C45.5422139,78.1211128 45.6086007,78.7074164 45.6667824,79.2108009 C44.9812826,79.5087224 44.4680901,79.8499379 43.9138721,79.9401948 C43.2455284,80.0487968 42.5294459,79.9959634 41.853643,79.8895629 C41.6462774,79.8594772 41.456068,79.4441483 41.3426883,79.1733773 C41.1136911,78.6230298 40.8600785,78.1196452 40.3394268,77.7571497 C39.7702904,77.3601657 39.5480065,77.337418 39.1019467,77.8187886 C38.9833456,77.9450016 38.90577,78.1042355 38.8013413,78.2429231 C38.378405,78.7888678 37.9472637,78.9136133 37.3512742,78.5657936 C36.9999462,78.358863 36.6956111,78.0536035 36.4129077,77.7571497 C36.0265215,77.3484249 35.6684802,77.0189502 35.0635397,77.4049273 C34.9068966,77.503256 34.662981,77.4805083 34.4608369,77.5193996 C34.0207445,77.600851 33.5687174,77.6397422 33.1547322,77.7843002 C32.6161785,77.9736197 32.1656432,78.0469994 31.7270427,77.5634274 C31.567416,77.3902513 31.2481625,77.3315476 30.9900744,77.283117 C30.7215435,77.2339526 30.3814043,77.3484249 30.162104,77.232485 C28.6583307,76.4355818 26.9300357,76.6806699 25.3628593,76.2081049 C25.1696662,76.1523363 24.9511118,76.1648109 24.7452381,76.1648109 C23.8106013,76.1604081 23.054985,75.7949773 22.4664547,75.0897987 C22.2680402,74.8491134 22.0435184,74.6128308 21.9062693,74.3420599 C21.4244054,73.3947283 20.3092561,73.2112792 19.644642,72.4870218 C19.5081388,72.3380611 19.3529876,72.2118481 19.2507966,72.1164545 C19.1970904,71.5668408 20.0690701,71.2476392 19.4342928,70.6209768 C18.516812,71.905121 17.2957422,71.0597873 16.150756,71.1676554 C16.0836233,70.9240349 16.0038099,70.7376505 15.9836701,70.5424606 C15.9441364,70.1755622 15.7382627,69.9847751 15.3906643,69.9135968 C14.4164937,69.7154717 13.7764949,69.154851 13.4408313,68.2324686 C13.2707617,67.7547669 12.9201796,67.4568455 12.4368239,67.2389079 C12.1183164,67.0943499 11.8132354,66.8000974 11.6357066,66.4977732 C10.6175267,64.7784876 9.63440511,63.0393894 8.65501308,61.2995574 C8.48494348,61.0001684 8.38573622,60.6677585 8.24624931,60.3507583 C7.86732231,59.5024893 7.6234067,58.5881786 6.89762723,57.9196899 C6.73203315,57.7670601 6.68205655,57.4955554 6.56718498,57.2856895 C6.1890039,56.601791 6.14797834,55.7395799 5.44159277,55.2215194 C5.36476309,55.1657509 5.28494972,55.0446744 5.29166299,54.9588202 C5.37595187,53.981403 4.52187429,53.4523356 4.17800549,52.6825829 C3.98033688,52.2437724 3.77297132,51.8123 3.56784351,51.3764247 C3.4783332,51.191508 3.42537293,50.9588944 3.27544315,50.837818 C2.61530458,50.2918732 2.38705327,49.5514724 2.1908765,48.7648423 C2.09166923,48.3781314 1.79703111,48.040585 1.65605237,47.6590107 C1.19059873,46.4232971 0.836287065,45.1611667 1.08840779,43.821254 C1.16150788,43.4272052 1.16896707,43.0852559 0.878058545,42.7557812 C0.722907333,42.583339 0.633397018,42.3353157 0.573723474,42.1078387 C0.13586885,40.3614026 -0.141613127,38.5951539 0.0754493874,36.7878127 C0.107523917,36.5192431 0.216428134,36.2594791 0.285798628,35.9909095 C0.363374234,35.689319 0.558805088,35.3547077 0.486450917,35.0920085 C0.214936295,34.1241307 0.779597199,33.2699913 0.79973702,32.3490765 C0.801974778,32.1282037 0.9884546,31.9161364 1.07050572,31.6879256 C1.25698555,31.1757356 1.51358178,30.6701496 1.59115739,30.1359456 C1.67395443,29.5877995 1.72169326,29.0778108 2.04915183,28.5795629 C2.23041022,28.3014539 2.15805605,27.8604421 2.20803264,27.4208979 C2.37213489,27.3394464 2.59740251,27.2484557 2.79507113,27.1200412 C3.13371848,26.9013698 3.51786692,26.7047123 3.77520907,26.4089922 C3.91022047,26.2504921 4.0236002,26.1316171 4.13026666,26.0325545 C4.09371661,25.9356934 4.06686352,25.8270915 4.05865841,25.6957418 C4.05045329,25.5196306 3.99525527,25.3200379 3.89903168,25.1674082 C3.67227221,25.2246444 3.42238925,25.2004291 3.1113409,25.1365888 C3.27171355,24.940665 3.42015149,24.8239914 3.57082719,24.7586835 C3.35525651,24.4541578 3.40299535,24.2736439 3.78938154,23.9192201 C4.30928729,23.4451874 4.6501724,22.8897033 4.90826048,22.2931266 C4.70984595,22.3107377 4.58527743,22.1852585 4.47637321,22.0076797 C4.51889061,21.9027467 4.55991617,21.7941448 4.60392541,21.6870105 C4.74788783,21.7479156 4.89632577,21.8102884 5.06937905,21.883668 C5.14546281,21.6767374 5.21632515,21.4646701 5.28047421,21.2511353 C5.45576524,20.6839104 5.6474665,20.5393525 6.58657889,20.1783245 C6.62163709,20.8974453 6.68504023,21.5123669 6.13007628,21.9746588 C5.69520533,22.3378882 5.68103286,22.7847704 6.00923735,23.1626757 C6.30760507,23.5046249 6.37622964,23.8641853 6.36951637,24.2237457 C6.65221978,24.2347526 6.92970176,24.2626369 7.20270822,24.3176717 C7.29371037,24.0689146 7.38172885,23.8216251 7.47720652,23.5750694 C8.95636448,19.7659308 10.7047993,15.9707343 12.9358439,12.6752533 C14.7626002,9.9697449 17.1838543,7.33981755 19.8721474,5.85461304 C23.4294365,3.8887717 27.159033,2.38375468 31.465225,1.53328431 C31.465225,1.53181672 31.4644791,1.53108292 31.4644791,1.52961533 C31.4055515,1.18473088 32.1395361,0.63071438 32.6042438,0.684281538 C32.7735675,0.704827846 32.9921218,0.941844178 33.0503035,1.12235816 C33.0622382,1.16418458 33.02718,1.21921933 33.0107698,1.2691175 C35.4260565,0.893413596 38.0099209,0.699691269 40.8705214,0.765732971 C43.4663205,0.765732971 46.1307442,1.11722159 48.7720444,1.83120577 C48.7146086,1.79451594 48.6512055,1.77763861 48.5945156,1.73287701 C48.2789918,1.4907241 47.8187596,1.42835139 47.4733989,1.20967997 C47.2384344,1.05925165 47.0929801,0.773804735 46.9057544,0.552198134 C47.1108822,0.395165641 47.3048212,0.219788231 47.5248674,0.0877048263 C47.6367553,0.0194617338 47.7978738,-0.00768874387 47.9313934,0.00185061315 C49.4187565,0.123660864 50.9598257,-0.000350776932 52.3024804,0.81269596 C52.6135288,0.999814117 52.9014536,1.30727493 53.0610804,1.6257427 C53.3281195,2.15334252 53.7107761,2.4681413 54.2836421,2.45346537 C55.0728247,2.43878943 55.688954,2.78881046 56.3185099,3.18652826 C57.1390211,3.70312114 57.2874591,3.66569751 58.0535182,2.86072253 C57.8580873,2.52611124 57.6917473,2.23699534 57.5015379,1.91118961 C57.6626565,1.85982384 57.7730525,1.78424278 57.8401853,1.81139326 C60.0958452,2.70735902 62.1575661,3.9342671 64.0842757,5.39011974 C64.1961635,5.47303876 64.3043218,5.56989993 64.386373,5.67703424 C65.1270708,6.63684032 65.9520576,7.52033154 66.872522,8.31943614 C67.0992814,8.51609365 67.2283255,8.82648965 67.399141,9.08478609 C67.5132666,9.25576072 67.5789075,9.50231641 67.7385343,9.59624238 C69.0274828,10.3527868 69.7965256,11.6303268 70.8452881,12.6275565 C71.5203451,13.268161 71.8850996,14.2411755 72.3416022,15.0887106 C72.8167528,15.9722019 73.2702717,16.8689014 73.6671008,17.7905501 C74.2235566,19.0886364 74.7166092,20.4124057 75.2394987,21.7244341 C75.3782396,22.0781241 75.5072837,22.4362169 75.6631808,22.7781662 C76.0152547,23.540581 76.1547416,24.3162041 76.2300795,25.164473 C76.3501725,26.514659 76.7313372,27.8310902 76.4173052,29.2194336 C76.3397296,29.55698 76.6753933,29.9789131 76.7962322,30.3685592 C76.9387028,30.8257145 77.149052,31.2850713 77.1632245,31.7473632 C77.204996,33.1577204 77.1572572,34.5688115 77.158749,35.9806363 C77.1602408,36.439993 77.0968377,36.8685303 76.9446702,37.2801903 C77.2609399,37.4863871 77.2989818,37.7659637 77.4183289,38.5951539 C77.5973495,39.8543491 77.9024305,41.1025372 77.9911949,42.3654013 C78.046393,43.1021332 77.8315682,43.868217 77.6398669,44.5976109 C77.2497512,46.0857506 76.6574912,47.534999 76.4105919,49.0400161 Z M9.18983721,14.7680415 C10.0812108,14.2411755 10.8771067,13.5836936 11.8788763,13.2087235 C12.4398076,12.9995915 12.5531873,12.3721953 12.2182695,12.0243756 C11.7207414,11.5063152 11.6200423,10.8818542 11.5268024,10.2287751 C11.4880146,9.95286758 11.3671756,9.68429799 11.2851245,9.40252006 C9.96484736,9.91030737 9.86041866,10.0622033 9.95962592,11.1518914 C9.98051166,11.3544193 10.0685301,11.6963685 9.98647902,11.7425977 C9.29650367,12.1469197 9.77985937,12.7273529 9.7500226,13.2813694 C8.84671434,13.420057 8.58638851,13.9960874 8.69529272,14.8575647 C8.86685416,14.8289466 9.05930134,14.8450901 9.18983721,14.7680415 Z M13.239433,9.77382118 L13.1976616,9.84133048 L13.2789668,9.84279807 L13.239433,9.77382118 Z M12.9522541,10.972845 C12.9522541,10.972845 12.9522541,10.972845 12.9522541,10.9743126 C12.9373357,11.0036644 13.1253074,11.1291437 13.2923933,11.2766368 C13.4184537,11.0528288 13.5295957,10.9024005 13.5788263,10.7358287 C13.5900151,10.7013402 13.3170087,10.5244952 13.2871719,10.5501781 C13.2297361,10.5978749 13.175284,10.6558448 13.1260533,10.7152823 C13.0268461,10.6411689 12.9418113,10.5707244 12.8537928,10.5487105 C12.8120213,10.5362359 12.6643293,10.7013402 12.6792477,10.7321597 C12.7292243,10.8304884 12.8217182,10.9244144 12.9201796,10.9838519 C12.9268929,10.9882547 12.9388276,10.9816505 12.9522541,10.972845 Z M23.4391334,3.81025545 C23.8076176,3.46537101 24.1261251,3.06985459 24.5326511,2.6237062 C23.692746,2.1137175 23.3160568,2.12032167 22.8729807,2.52684504 C22.5044966,2.86659291 22.519415,3.25330376 22.7454285,3.65028777 C22.9080389,3.9342671 23.1765699,4.05607735 23.4391334,3.81025545 Z M14.2874497,8.09342676 C14.6544419,7.38751434 14.6880083,7.37944257 15.5458155,7.80357706 C15.1780773,8.20202867 14.783486,8.28935047 14.2874497,8.09342676 Z"/>
      <g fill="#FFF" transform="rotate(-6 63.622 -48.865)">
        <path d="M20.3717118,66.8846523 L18.5816556,66.6696284 L18.5816556,66.3112554 L21.016132,65.0927869 L21.3741432,64.4477154 L24.8826532,62.0824531 L25.5986756,62.0824531 L26.2430958,61.0790085 L28.0331519,60.1472385 L32.5440933,55.5600632 L34.2625472,54.0548963 L34.9785696,54.0548963 L35.3365809,53.1231263 L39.489511,49.8260941 L40.2055335,49.8260941 L40.9215559,48.3209272 C43.4515145,46.4573779 45.5279589,44.4027262 47.1509512,42.1569103 L48.2249849,38.7882035 C46.3633172,37.9758871 44.2630057,37.569735 41.9239874,37.569735 C36.3867194,37.3786018 31.0643391,37.9042104 25.9566868,39.1465765 L25.9566868,39.7199735 L16.8632018,43.3753788 L16.5051906,44.8805457 L14.7867367,44.8805457 L12.7102716,44.3071488 C10.8486039,42.3002495 9.6791123,39.9589022 9.20176162,37.2830366 C12.9250969,33.1736715 16.051697,28.8971289 18.5816556,24.4532806 L19.2976781,24.4532806 L20.729723,20.5111768 C15.6220707,20.7023101 10.7292996,20.4872884 6.05126286,19.8661053 L4.69082021,17.14247 C8.41415554,16.9513367 11.9584312,16.533239 15.3237535,15.8881642 C18.6890758,15.2430894 22.1140156,14.6338613 25.5986756,14.0604615 C27.8899589,11.0023294 29.393591,7.63365618 30.109617,3.95434092 L30.4676282,3.95434092 C32.7589115,4.38439075 34.8353558,5.31615142 36.6970235,6.74965088 L37.0550347,8.25481778 C35.6707177,9.68831723 34.8592338,11.3129256 34.6205584,13.1286915 L39.489511,13.1286915 L41.5659761,12.8419931 C45.0506361,12.6508598 48.0817675,13.6781857 50.6594612,15.9240015 L50.6594612,18.0025653 L31.4700597,19.5077322 C28.7014257,23.8560139 26.2669737,28.3475781 24.1666307,32.9825597 L24.8826532,32.9825597 L41.2795672,32.4091628 C46.3872195,32.6002961 50.7787799,34.4160348 54.4543801,37.8564335 C55.6477568,39.7199828 56.2444362,41.8701997 56.2444362,44.3071488 L53.4519487,51.331261 L52.377915,51.6179594 C51.7096241,53.672642 50.4446638,55.512272 48.5829961,57.1369047 L47.5089624,57.4952778 L47.1509512,58.3553732 C43.4276159,60.601189 39.5969341,62.5483299 35.658791,64.1968543 C31.7206478,65.8453786 27.4364897,66.7413023 22.8061881,66.8846523 L21.7321544,66.6696284 L20.3717118,66.8846523 Z" transform="rotate(9 30.468 35.42)"/>
        <path d="M30.4012652,34.3760565 C34.0783387,38.2799247 41.389931,41.6197078 43.0846772,45.4290109 C44.577896,48.7853382 40.9506873,52.6323383 37.3181601,55.7771587 C29.5628537,62.49123 53.4575817,49.9023464 53.4575817,49.0630874 C53.4575817,48.5035815 45.7721429,43.1882751 30.4012652,33.1171681"/>
        <path d="M31.7293532,39.5862832 C41.5387681,51.8699548 39.9883285,54.0866344 35.6228701,60.7153665 C31.2574117,67.3440985 44.7077429,54.9152259 44.7077429,54.0866344 C44.7077429,53.5342401 40.381613,48.2864939 31.7293532,38.3433959 C25.1897433,30.982873 25.1897433,31.3971687 31.7293532,39.5862832 Z"/>
      </g>
    </g>
  </g>
</svg>
