<svg xmlns="http://www.w3.org/2000/svg" width="133" height="133" viewBox="0 0 133 133">
  <defs>
    <linearGradient id="icon-a" x1="-41.194%" x2="156.611%" y1="100%" y2="16.528%">
      <stop offset="0%" stop-color="#5E65FF"/>
      <stop offset="100%" stop-color="#B21AE8"/>
    </linearGradient>
  </defs>
  <g fill="none" fill-rule="evenodd">
    <circle cx="66.5" cy="66.5" r="66.5" fill="url(#icon-a)"/>
    <g fill="#FFF" fill-rule="nonzero" transform="translate(30 14)">
      <path d="M47.7509904,14.3389931 L73.2678239,14.3993148 C73.4433822,14.3997299 73.6157374,14.4463553 73.7675621,14.5345037 C74.2451825,14.8118071 74.4075716,15.4237937 74.1302683,15.9014142 L67.9491867,26.5475567 C67.7702385,26.8557726 67.4407762,27.0454545 67.0843783,27.0454545 L40.441152,27.0454545 L18.2969254,65.5380649 C18.1184963,65.8482227 17.7879454,66.0394081 17.4301259,66.0394081 L1.31730635,66.0394081 C1.14329786,66.0394081 0.972301041,65.9940024 0.821214667,65.9076782 C0.341682307,65.6336944 0.175052332,65.0228488 0.449036202,64.5433164 L21.8736785,27.0454545 L3.11110949,27.0454545 C2.93488581,27.0454545 2.76179151,26.9988861 2.60935614,26.9104653 C2.1316239,26.6333546 1.96898802,26.0214334 2.24609875,25.5437012 L8.42000537,14.9000342 C8.59839649,14.5924922 8.92666362,14.4027936 9.28219769,14.4017916 L29.1296768,14.3458529 L37.03836,0.50390832 C37.2163956,0.192306738 37.5477539,1.84228135e-15 37.9066302,1.77635684e-15 L54.2710455,4.6629367e-15 C54.4460565,5.87431557e-15 54.6180029,0.04593009 54.7697024,0.13320052 C55.2484225,0.408601097 55.4132456,1.01993672 55.137845,1.49865686 L47.7509904,14.3389931 Z"/>
      <path d="M23.2779492,51.7045455 L70.9016345,51.7045455 C71.0756932,51.7045455 71.2467376,51.7499773 71.3978547,51.8363488 C71.8773465,52.1104036 72.0438861,52.7212739 71.7698312,53.2007657 L42.4776084,104.451017 C42.299553,104.762546 41.9682351,104.954797 41.6094117,104.954797 L25.076772,104.954797 C24.9033662,104.954797 24.7329405,104.909705 24.5822247,104.823947 C24.102206,104.550816 23.9344903,103.940268 24.2076213,103.460249 L48.2252796,61.25 L18.9822046,61.25 C18.4299199,61.25 17.9822046,60.8022847 17.9822046,60.25 C17.9822046,60.0765135 18.0273384,59.9060114 18.1131716,59.755246 L22.4089161,52.2097914 C22.586744,51.8974376 22.9185223,51.7045455 23.2779492,51.7045455 Z"/>
    </g>
  </g>
</svg>
