<svg width="424" height="79" viewBox="0 0 424 79" fill="none" xmlns="http://www.w3.org/2000/svg">
<g clip-path="url(#clip0)">
<rect width="794" height="949" fill="#F0F5F9" transform="translate(0 -742)"/>
<mask id="mask0" mask-type="alpha" maskUnits="userSpaceOnUse" x="8" y="11" width="128" height="40">
<rect width="128" height="40" rx="2" transform="translate(8 11)" fill="#C4C4C4"/>
</mask>
<g mask="url(#mask0)">
<rect width="128" height="40" rx="2" transform="translate(8 11)" fill="#1C94FF"/>
<path d="M55.75 12.1875C55.75 8.45455 53.5795 6.20455 50.6307 6.20455C47.6705 6.20455 45.4943 8.45455 45.4943 12.1875C45.4943 15.9148 47.6705 18.1591 50.6307 18.1591C53.5795 18.1591 55.75 15.9148 55.75 12.1875ZM53.9716 12.1875C53.9716 15.0795 52.5227 16.5057 50.6307 16.5057C48.733 16.5057 47.2727 15.0795 47.2727 12.1875C47.2727 9.29545 48.733 7.85795 50.6307 7.85795C52.5227 7.85795 53.9716 9.29545 53.9716 12.1875ZM64.767 18H66.9318L62.142 11.6591L67.0455 6.36364H64.6875L59.7273 11.8466H59.5852V6.36364H57.7841V18H59.5852V14.517L61.017 12.9261L64.767 18Z" transform="translate(16 19)" fill="white"/>
</g>
<mask id="mask1" mask-type="alpha" maskUnits="userSpaceOnUse" x="282" y="11" width="128" height="40">
<rect width="128" height="40" rx="2" transform="translate(282 11)" fill="#C4C4C4"/>
</mask>
<g mask="url(#mask1)">
<rect width="128" height="40" rx="2" transform="translate(282 11)" fill="#CCE7FF"/>
<path d="M55.75 12.1875C55.75 8.45455 53.5795 6.20455 50.6307 6.20455C47.6705 6.20455 45.4943 8.45455 45.4943 12.1875C45.4943 15.9148 47.6705 18.1591 50.6307 18.1591C53.5795 18.1591 55.75 15.9148 55.75 12.1875ZM53.9716 12.1875C53.9716 15.0795 52.5227 16.5057 50.6307 16.5057C48.733 16.5057 47.2727 15.0795 47.2727 12.1875C47.2727 9.29545 48.733 7.85795 50.6307 7.85795C52.5227 7.85795 53.9716 9.29545 53.9716 12.1875ZM64.767 18H66.9318L62.142 11.6591L67.0455 6.36364H64.6875L59.7273 11.8466H59.5852V6.36364H57.7841V18H59.5852V14.517L61.017 12.9261L64.767 18Z" transform="translate(290 19)" fill="white"/>
</g>
<mask id="mask2" mask-type="alpha" maskUnits="userSpaceOnUse" x="145" y="11" width="128" height="40">
<rect width="128" height="40" rx="2" transform="translate(145 11)" fill="#C4C4C4"/>
</mask>
<g mask="url(#mask2)">
<rect width="128" height="40" rx="2" transform="translate(145 11)" fill="#4DACFF"/>
<path d="M55.75 12.1875C55.75 8.45455 53.5795 6.20455 50.6307 6.20455C47.6705 6.20455 45.4943 8.45455 45.4943 12.1875C45.4943 15.9148 47.6705 18.1591 50.6307 18.1591C53.5795 18.1591 55.75 15.9148 55.75 12.1875ZM53.9716 12.1875C53.9716 15.0795 52.5227 16.5057 50.6307 16.5057C48.733 16.5057 47.2727 15.0795 47.2727 12.1875C47.2727 9.29545 48.733 7.85795 50.6307 7.85795C52.5227 7.85795 53.9716 9.29545 53.9716 12.1875ZM64.767 18H66.9318L62.142 11.6591L67.0455 6.36364H64.6875L59.7273 11.8466H59.5852V6.36364H57.7841V18H59.5852V14.517L61.017 12.9261L64.767 18Z" transform="translate(153 19)" fill="white"/>
</g>
<mask id="mask3" mask-type="alpha" maskUnits="userSpaceOnUse" x="145" y="11" width="128" height="40">
<rect width="128" height="40" rx="2" transform="translate(145 11)" fill="#C4C4C4"/>
</mask>
<g mask="url(#mask3)">
<rect width="128" height="40" rx="2" transform="translate(145 11)" fill="#007AE6"/>
<path d="M55.75 12.1875C55.75 8.45455 53.5795 6.20455 50.6307 6.20455C47.6705 6.20455 45.4943 8.45455 45.4943 12.1875C45.4943 15.9148 47.6705 18.1591 50.6307 18.1591C53.5795 18.1591 55.75 15.9148 55.75 12.1875ZM53.9716 12.1875C53.9716 15.0795 52.5227 16.5057 50.6307 16.5057C48.733 16.5057 47.2727 15.0795 47.2727 12.1875C47.2727 9.29545 48.733 7.85795 50.6307 7.85795C52.5227 7.85795 53.9716 9.29545 53.9716 12.1875ZM64.767 18H66.9318L62.142 11.6591L67.0455 6.36364H64.6875L59.7273 11.8466H59.5852V6.36364H57.7841V18H59.5852V14.517L61.017 12.9261L64.767 18Z" transform="translate(153 19)" fill="white"/>
</g>
<path d="M2.29705 8.19886C2.29705 7.07386 2.97887 6.52841 3.7587 6.52841C4.52575 6.52841 4.96893 7.02273 4.96893 7.85795V12H6.27717V7.86222C6.27717 6.20455 5.41211 5.36932 4.20188 5.36932C3.30273 5.36932 2.68058 5.80824 2.34393 6.30256H2.27575V3.27273H0.984553V12H2.29705V8.19886ZM12.7203 7.0696C12.4391 6.00426 11.6678 5.36932 10.3042 5.36932C8.79989 5.36932 7.73029 6.14915 7.73029 7.33381C7.73029 8.25 8.3695 8.89347 9.49876 9.17045L10.6152 9.43892C11.1522 9.56676 11.4888 9.77983 11.4888 10.2145C11.4888 10.6875 10.9732 11.0923 10.1806 11.0923C9.35813 11.0923 8.88512 10.6577 8.68484 10.0611L7.4533 10.3253C7.74308 11.3395 8.55273 12.1321 10.1507 12.1321C11.7786 12.1321 12.8269 11.2798 12.8269 10.1122C12.8269 9.22159 12.2132 8.625 11.1053 8.36932L10.0186 8.1179C9.39648 7.96875 9.03853 7.66619 9.03853 7.25284C9.03853 6.75852 9.58398 6.40057 10.2701 6.40057C11.101 6.40057 11.4292 6.92045 11.5314 7.27415L12.7203 7.0696ZM15.2814 3.27273H13.9689V12H15.2814V3.27273ZM19.8496 12.8182C18.8439 11.0795 18.4178 9.46023 18.4178 7.63636C18.4178 5.74432 18.8439 4.19318 19.8667 2.45455H18.7331C17.7828 3.71591 17.1394 5.625 17.1394 7.63636C17.1394 9.64773 17.7828 11.5568 18.6735 12.8182H19.8496ZM26.7594 10.8409H22.7963V10.7898L24.748 8.78693C25.7495 7.75994 26.5293 6.73295 26.5293 5.66335C26.5293 4.19744 25.4086 3.15341 23.7892 3.15341C21.9185 3.15341 21.0364 4.55114 21.0364 6.02557H22.3489C22.3489 5.09233 22.7367 4.24006 23.7551 4.24006C24.6756 4.24006 25.2338 4.92614 25.2338 5.71023C25.2338 6.375 24.8162 6.96733 23.8404 7.96875L20.8489 11.0199V12H26.7594V10.8409ZM34.0069 7.05682C34.0069 4.53409 32.899 3.15341 31.0453 3.15341C29.1788 3.15341 28.0581 4.53409 28.0581 7.05682V8.08807C28.0581 10.6619 29.1873 12.1193 31.0581 12.1193C32.9118 12.1193 34.0069 10.6619 34.0069 8.08807V7.05682ZM32.6731 8.29688C32.6731 9.87358 32.1149 10.9645 31.0581 10.9645C29.9799 10.9645 29.3919 9.87358 29.3919 8.29688V6.84375C29.3919 5.30114 29.9672 4.30398 31.0453 4.30398C32.1106 4.30398 32.6731 5.30114 32.6731 6.84375V8.29688ZM41.035 9.54972C41.035 8.5483 40.5236 7.80682 39.7225 7.40625C40.4086 7.04403 40.839 6.39205 40.839 5.48011C40.839 3.95881 39.7353 3.15341 38.2225 3.15341C36.714 3.15341 35.589 3.95881 35.589 5.48011C35.589 6.39205 36.0151 7.03977 36.7012 7.40625C35.9 7.80256 35.3929 8.5483 35.3929 9.54972C35.3929 11.1648 36.633 12.1193 38.231 12.1193C39.812 12.1193 41.035 11.152 41.035 9.54972ZM39.5648 5.53551C39.5648 6.3196 38.9597 6.86506 38.231 6.86506C37.4895 6.86506 36.8674 6.3196 36.8674 5.52273C36.8674 4.73011 37.4895 4.26989 38.2012 4.26989C38.9554 4.26989 39.5648 4.77273 39.5648 5.53551ZM39.7225 9.50284C39.7225 10.3509 39.0918 11.0156 38.231 11.0156C37.3659 11.0156 36.6926 10.3509 36.6926 9.49006C36.6926 8.625 37.3659 7.94318 38.2012 7.94318C39.0407 7.94318 39.7225 8.625 39.7225 9.50284ZM43.7814 10.7855H42.5499V11.7784C42.5499 12.5114 42.2857 13.0739 42.0044 13.7088L42.8908 13.9773C43.4107 13.3381 43.7686 12.5412 43.7814 11.7273V10.7855ZM51.9185 3.27273H50.7466C50.6784 3.36222 50.2438 4.62358 48.7949 4.62358V5.72727C49.775 5.72727 50.4483 5.3821 50.5932 5.11364H50.6614V12H51.9185V3.27273ZM60.1866 7.05682C60.1866 4.53409 59.0787 3.15341 57.225 3.15341C55.3585 3.15341 54.2377 4.53409 54.2377 7.05682V8.08807C54.2377 10.6619 55.367 12.1193 57.2377 12.1193C59.0914 12.1193 60.1866 10.6619 60.1866 8.08807V7.05682ZM58.8528 8.29688C58.8528 9.87358 58.2946 10.9645 57.2377 10.9645C56.1596 10.9645 55.5716 9.87358 55.5716 8.29688V6.84375C55.5716 5.30114 56.1468 4.30398 57.225 4.30398C58.2903 4.30398 58.8528 5.30114 58.8528 6.84375V8.29688ZM67.3936 7.05682C67.3936 4.53409 66.2857 3.15341 64.432 3.15341C62.5655 3.15341 61.4448 4.53409 61.4448 7.05682V8.08807C61.4448 10.6619 62.574 12.1193 64.4448 12.1193C66.2985 12.1193 67.3936 10.6619 67.3936 8.08807V7.05682ZM66.0598 8.29688C66.0598 9.87358 65.5016 10.9645 64.4448 10.9645C63.3667 10.9645 62.7786 9.87358 62.7786 8.29688V6.84375C62.7786 5.30114 63.3539 4.30398 64.432 4.30398C65.4973 4.30398 66.0598 5.30114 66.0598 6.84375V8.29688ZM68.997 5.36932C68.997 6.36222 69.6149 7.18892 70.7697 7.18892C71.9032 7.18892 72.5254 6.36222 72.5254 5.36932V4.90909C72.5254 3.91619 71.9203 3.08097 70.7697 3.08097C69.6319 3.08097 68.997 3.91619 68.997 4.90909V5.36932ZM76.5055 3.20028H75.3507L69.2569 12.0724H70.416L76.5055 3.20028ZM70.0027 4.90909C70.0027 4.4233 70.2115 3.95028 70.7697 3.95028C71.345 3.95028 71.5197 4.4233 71.5197 4.90909V5.36932C71.5197 5.85511 71.3279 6.3196 70.7697 6.3196C70.1987 6.3196 70.0027 5.85511 70.0027 5.36932V4.90909ZM73.3436 10.3636C73.3436 11.3565 73.9615 12.1918 75.1163 12.1918C76.2498 12.1918 76.872 11.3565 76.872 10.3636V9.90341C76.872 8.91051 76.2669 8.07528 75.1163 8.07528C73.9785 8.07528 73.3436 8.91051 73.3436 9.90341V10.3636ZM74.3493 9.90341C74.3493 9.41761 74.5581 8.9446 75.1163 8.9446C75.6916 8.9446 75.8663 9.41761 75.8663 9.90341V10.3636C75.8663 10.8494 75.6745 11.3139 75.1163 11.3139C74.5453 11.3139 74.3493 10.8494 74.3493 10.3636V9.90341ZM80.2502 10.7855H79.0186V11.7784C79.0186 12.5114 78.7544 13.0739 78.4732 13.7088L79.3596 13.9773C79.8794 13.3381 80.2374 12.5412 80.2502 11.7273V10.7855ZM86.5378 8.00284C86.8574 7.71733 87.2793 7.49148 88.008 7.49148C88.9071 7.49148 89.6614 8.04119 89.6614 9.23438C89.6614 10.2827 88.9625 11.0156 88.0293 11.0156C87.177 11.0156 86.687 10.4872 86.5549 9.65625H85.2551C85.3574 11.2457 86.4569 12.1193 87.9867 12.1193C89.9086 12.1193 90.9441 10.858 90.9441 9.23011C90.9441 7.52983 89.8276 6.40483 88.2083 6.40483C87.5776 6.40483 87.0279 6.66477 86.7594 6.91193H86.7125L87.0236 4.47869H90.5904V3.27273H85.8816L85.3702 7.73438L86.5378 8.00284ZM93.7214 8.00284C94.041 7.71733 94.4629 7.49148 95.1916 7.49148C96.0907 7.49148 96.845 8.04119 96.845 9.23438C96.845 10.2827 96.1461 11.0156 95.2129 11.0156C94.3606 11.0156 93.8706 10.4872 93.7385 9.65625H92.4387C92.541 11.2457 93.6404 12.1193 95.1703 12.1193C97.0922 12.1193 98.1277 10.858 98.1277 9.23011C98.1277 7.52983 97.0112 6.40483 95.3919 6.40483C94.7612 6.40483 94.2115 6.66477 93.943 6.91193H93.8961L94.2072 4.47869H97.774V3.27273H93.0652L92.5538 7.73438L93.7214 8.00284ZM99.8525 5.36932C99.8525 6.36222 100.47 7.18892 101.625 7.18892C102.759 7.18892 103.381 6.36222 103.381 5.36932V4.90909C103.381 3.91619 102.776 3.08097 101.625 3.08097C100.487 3.08097 99.8525 3.91619 99.8525 4.90909V5.36932ZM107.361 3.20028H106.206L100.112 12.0724H101.271L107.361 3.20028ZM100.858 4.90909C100.858 4.4233 101.067 3.95028 101.625 3.95028C102.2 3.95028 102.375 4.4233 102.375 4.90909V5.36932C102.375 5.85511 102.183 6.3196 101.625 6.3196C101.054 6.3196 100.858 5.85511 100.858 5.36932V4.90909ZM104.199 10.3636C104.199 11.3565 104.817 12.1918 105.972 12.1918C107.105 12.1918 107.727 11.3565 107.727 10.3636V9.90341C107.727 8.91051 107.122 8.07528 105.972 8.07528C104.834 8.07528 104.199 8.91051 104.199 9.90341V10.3636ZM105.205 9.90341C105.205 9.41761 105.414 8.9446 105.972 8.9446C106.547 8.9446 106.722 9.41761 106.722 9.90341V10.3636C106.722 10.8494 106.53 11.3139 105.972 11.3139C105.401 11.3139 105.205 10.8494 105.205 10.3636V9.90341ZM109.001 13.6364H110.177C111.067 12.375 111.711 10.4659 111.711 8.45455C111.711 6.44318 111.067 4.53409 110.117 3.27273H108.983C110.006 5.01136 110.432 6.5625 110.432 8.45455C110.432 10.2784 110.006 11.8977 109.001 13.6364Z" transform="translate(16 55)" fill="#ADADAD"/>
<path d="M2.25604 8.19886C2.25604 7.07386 2.93786 6.52841 3.71768 6.52841C4.48473 6.52841 4.92791 7.02273 4.92791 7.85795V12H6.23615V7.86222C6.23615 6.20455 5.37109 5.36932 4.16087 5.36932C3.26172 5.36932 2.63956 5.80824 2.30291 6.30256H2.23473V3.27273H0.943537V12H2.25604V8.19886ZM12.6793 7.0696C12.3981 6.00426 11.6268 5.36932 10.2631 5.36932C8.75888 5.36932 7.68928 6.14915 7.68928 7.33381C7.68928 8.25 8.32848 8.89347 9.45774 9.17045L10.5742 9.43892C11.1112 9.56676 11.4478 9.77983 11.4478 10.2145C11.4478 10.6875 10.9322 11.0923 10.1396 11.0923C9.31712 11.0923 8.84411 10.6577 8.64382 10.0611L7.41229 10.3253C7.70206 11.3395 8.51172 12.1321 10.1097 12.1321C11.7376 12.1321 12.7859 11.2798 12.7859 10.1122C12.7859 9.22159 12.1722 8.625 11.0643 8.36932L9.97763 8.1179C9.35547 7.96875 8.99751 7.66619 8.99751 7.25284C8.99751 6.75852 9.54297 6.40057 10.229 6.40057C11.06 6.40057 11.3881 6.92045 11.4904 7.27415L12.6793 7.0696ZM15.2404 3.27273H13.9279V12H15.2404V3.27273ZM19.8086 12.8182C18.8029 11.0795 18.3768 9.46023 18.3768 7.63636C18.3768 5.74432 18.8029 4.19318 19.8256 2.45455H18.6921C17.7418 3.71591 17.0984 5.625 17.0984 7.63636C17.0984 9.64773 17.7418 11.5568 18.6325 12.8182H19.8086ZM26.7184 10.8409H22.7553V10.7898L24.707 8.78693C25.7085 7.75994 26.4883 6.73295 26.4883 5.66335C26.4883 4.19744 25.3675 3.15341 23.7482 3.15341C21.8775 3.15341 20.9954 4.55114 20.9954 6.02557H22.3079C22.3079 5.09233 22.6957 4.24006 23.7141 4.24006C24.6346 4.24006 25.1928 4.92614 25.1928 5.71023C25.1928 6.375 24.7752 6.96733 23.7994 7.96875L20.8079 11.0199V12H26.7184V10.8409ZM33.9659 7.05682C33.9659 4.53409 32.858 3.15341 31.0043 3.15341C29.1378 3.15341 28.017 4.53409 28.017 7.05682V8.08807C28.017 10.6619 29.1463 12.1193 31.017 12.1193C32.8707 12.1193 33.9659 10.6619 33.9659 8.08807V7.05682ZM32.6321 8.29688C32.6321 9.87358 32.0739 10.9645 31.017 10.9645C29.9389 10.9645 29.3509 9.87358 29.3509 8.29688V6.84375C29.3509 5.30114 29.9261 4.30398 31.0043 4.30398C32.0696 4.30398 32.6321 5.30114 32.6321 6.84375V8.29688ZM40.994 9.54972C40.994 8.5483 40.4826 7.80682 39.6815 7.40625C40.3675 7.04403 40.7979 6.39205 40.7979 5.48011C40.7979 3.95881 39.6942 3.15341 38.1815 3.15341C36.6729 3.15341 35.5479 3.95881 35.5479 5.48011C35.5479 6.39205 35.9741 7.03977 36.6602 7.40625C35.859 7.80256 35.3519 8.5483 35.3519 9.54972C35.3519 11.1648 36.592 12.1193 38.19 12.1193C39.771 12.1193 40.994 11.152 40.994 9.54972ZM39.5238 5.53551C39.5238 6.3196 38.9187 6.86506 38.19 6.86506C37.4485 6.86506 36.8263 6.3196 36.8263 5.52273C36.8263 4.73011 37.4485 4.26989 38.1602 4.26989C38.9144 4.26989 39.5238 4.77273 39.5238 5.53551ZM39.6815 9.50284C39.6815 10.3509 39.0508 11.0156 38.19 11.0156C37.3249 11.0156 36.6516 10.3509 36.6516 9.49006C36.6516 8.625 37.3249 7.94318 38.1602 7.94318C38.9996 7.94318 39.6815 8.625 39.6815 9.50284ZM43.7404 10.7855H42.5089V11.7784C42.5089 12.5114 42.2447 13.0739 41.9634 13.7088L42.8498 13.9773C43.3697 13.3381 43.7276 12.5412 43.7404 11.7273V10.7855ZM51.8775 3.27273H50.7056C50.6374 3.36222 50.2028 4.62358 48.7539 4.62358V5.72727C49.734 5.72727 50.4073 5.3821 50.5522 5.11364H50.6204V12H51.8775V3.27273ZM60.1456 7.05682C60.1456 4.53409 59.0376 3.15341 57.1839 3.15341C55.3175 3.15341 54.1967 4.53409 54.1967 7.05682V8.08807C54.1967 10.6619 55.326 12.1193 57.1967 12.1193C59.0504 12.1193 60.1456 10.6619 60.1456 8.08807V7.05682ZM58.8118 8.29688C58.8118 9.87358 58.2536 10.9645 57.1967 10.9645C56.1186 10.9645 55.5305 9.87358 55.5305 8.29688V6.84375C55.5305 5.30114 56.1058 4.30398 57.1839 4.30398C58.2493 4.30398 58.8118 5.30114 58.8118 6.84375V8.29688ZM67.3526 7.05682C67.3526 4.53409 66.2447 3.15341 64.391 3.15341C62.5245 3.15341 61.4038 4.53409 61.4038 7.05682V8.08807C61.4038 10.6619 62.533 12.1193 64.4038 12.1193C66.2575 12.1193 67.3526 10.6619 67.3526 8.08807V7.05682ZM66.0188 8.29688C66.0188 9.87358 65.4606 10.9645 64.4038 10.9645C63.3256 10.9645 62.7376 9.87358 62.7376 8.29688V6.84375C62.7376 5.30114 63.3129 4.30398 64.391 4.30398C65.4563 4.30398 66.0188 5.30114 66.0188 6.84375V8.29688ZM68.956 5.36932C68.956 6.36222 69.5739 7.18892 70.7287 7.18892C71.8622 7.18892 72.4844 6.36222 72.4844 5.36932V4.90909C72.4844 3.91619 71.8793 3.08097 70.7287 3.08097C69.5909 3.08097 68.956 3.91619 68.956 4.90909V5.36932ZM76.4645 3.20028H75.3097L69.2159 12.0724H70.375L76.4645 3.20028ZM69.9616 4.90909C69.9616 4.4233 70.1705 3.95028 70.7287 3.95028C71.304 3.95028 71.4787 4.4233 71.4787 4.90909V5.36932C71.4787 5.85511 71.2869 6.3196 70.7287 6.3196C70.1577 6.3196 69.9616 5.85511 69.9616 5.36932V4.90909ZM73.3026 10.3636C73.3026 11.3565 73.9205 12.1918 75.0753 12.1918C76.2088 12.1918 76.831 11.3565 76.831 10.3636V9.90341C76.831 8.91051 76.2259 8.07528 75.0753 8.07528C73.9375 8.07528 73.3026 8.91051 73.3026 9.90341V10.3636ZM74.3082 9.90341C74.3082 9.41761 74.517 8.9446 75.0753 8.9446C75.6506 8.9446 75.8253 9.41761 75.8253 9.90341V10.3636C75.8253 10.8494 75.6335 11.3139 75.0753 11.3139C74.5043 11.3139 74.3082 10.8494 74.3082 10.3636V9.90341ZM80.2092 10.7855H78.9776V11.7784C78.9776 12.5114 78.7134 13.0739 78.4322 13.7088L79.3185 13.9773C79.8384 13.3381 80.1964 12.5412 80.2092 11.7273V10.7855ZM91.3079 9.17898H90.0806V3.27273H88.6999L84.9116 9.46875V10.3423H88.8832V12H90.0806V10.3423H91.3079V9.17898ZM86.4286 9.17898L88.6999 5.35653L88.8832 4.92188V9.17898H86.4286ZM93.7624 8.00284C94.082 7.71733 94.5039 7.49148 95.2326 7.49148C96.1317 7.49148 96.886 8.04119 96.886 9.23438C96.886 10.2827 96.1871 11.0156 95.2539 11.0156C94.4016 11.0156 93.9116 10.4872 93.7795 9.65625H92.4798C92.582 11.2457 93.6815 12.1193 95.2113 12.1193C97.1332 12.1193 98.1687 10.858 98.1687 9.23011C98.1687 7.52983 97.0522 6.40483 95.4329 6.40483C94.8022 6.40483 94.2525 6.66477 93.984 6.91193H93.9371L94.2482 4.47869H97.815V3.27273H93.1062L92.5948 7.73438L93.7624 8.00284ZM99.8935 5.36932C99.8935 6.36222 100.511 7.18892 101.666 7.18892C102.8 7.18892 103.422 6.36222 103.422 5.36932V4.90909C103.422 3.91619 102.817 3.08097 101.666 3.08097C100.528 3.08097 99.8935 3.91619 99.8935 4.90909V5.36932ZM107.402 3.20028H106.247L100.153 12.0724H101.312L107.402 3.20028ZM100.899 4.90909C100.899 4.4233 101.108 3.95028 101.666 3.95028C102.241 3.95028 102.416 4.4233 102.416 4.90909V5.36932C102.416 5.85511 102.224 6.3196 101.666 6.3196C101.095 6.3196 100.899 5.85511 100.899 5.36932V4.90909ZM104.24 10.3636C104.24 11.3565 104.858 12.1918 106.013 12.1918C107.146 12.1918 107.768 11.3565 107.768 10.3636V9.90341C107.768 8.91051 107.163 8.07528 106.013 8.07528C104.875 8.07528 104.24 8.91051 104.24 9.90341V10.3636ZM105.246 9.90341C105.246 9.41761 105.455 8.9446 106.013 8.9446C106.588 8.9446 106.763 9.41761 106.763 9.90341V10.3636C106.763 10.8494 106.571 11.3139 106.013 11.3139C105.442 11.3139 105.246 10.8494 105.246 10.3636V9.90341ZM109.042 13.6364H110.218C111.108 12.375 111.752 10.4659 111.752 8.45455C111.752 6.44318 111.108 4.53409 110.158 3.27273H109.025C110.047 5.01136 110.473 6.5625 110.473 8.45455C110.473 10.2784 110.047 11.8977 109.042 13.6364Z" transform="translate(152 55)" fill="#ADADAD"/>
<path d="M2.29705 8.19886C2.29705 7.07386 2.97887 6.52841 3.7587 6.52841C4.52575 6.52841 4.96893 7.02273 4.96893 7.85795V12H6.27717V7.86222C6.27717 6.20455 5.41211 5.36932 4.20188 5.36932C3.30273 5.36932 2.68058 5.80824 2.34393 6.30256H2.27575V3.27273H0.984553V12H2.29705V8.19886ZM12.7203 7.0696C12.4391 6.00426 11.6678 5.36932 10.3042 5.36932C8.79989 5.36932 7.73029 6.14915 7.73029 7.33381C7.73029 8.25 8.3695 8.89347 9.49876 9.17045L10.6152 9.43892C11.1522 9.56676 11.4888 9.77983 11.4888 10.2145C11.4888 10.6875 10.9732 11.0923 10.1806 11.0923C9.35813 11.0923 8.88512 10.6577 8.68484 10.0611L7.4533 10.3253C7.74308 11.3395 8.55273 12.1321 10.1507 12.1321C11.7786 12.1321 12.8269 11.2798 12.8269 10.1122C12.8269 9.22159 12.2132 8.625 11.1053 8.36932L10.0186 8.1179C9.39648 7.96875 9.03853 7.66619 9.03853 7.25284C9.03853 6.75852 9.58398 6.40057 10.2701 6.40057C11.101 6.40057 11.4292 6.92045 11.5314 7.27415L12.7203 7.0696ZM15.2814 3.27273H13.9689V12H15.2814V3.27273ZM19.8496 12.8182C18.8439 11.0795 18.4178 9.46023 18.4178 7.63636C18.4178 5.74432 18.8439 4.19318 19.8667 2.45455H18.7331C17.7828 3.71591 17.1394 5.625 17.1394 7.63636C17.1394 9.64773 17.7828 11.5568 18.6735 12.8182H19.8496ZM26.7594 10.8409H22.7963V10.7898L24.748 8.78693C25.7495 7.75994 26.5293 6.73295 26.5293 5.66335C26.5293 4.19744 25.4086 3.15341 23.7892 3.15341C21.9185 3.15341 21.0364 4.55114 21.0364 6.02557H22.3489C22.3489 5.09233 22.7367 4.24006 23.7551 4.24006C24.6756 4.24006 25.2338 4.92614 25.2338 5.71023C25.2338 6.375 24.8162 6.96733 23.8404 7.96875L20.8489 11.0199V12H26.7594V10.8409ZM34.0069 7.05682C34.0069 4.53409 32.899 3.15341 31.0453 3.15341C29.1788 3.15341 28.0581 4.53409 28.0581 7.05682V8.08807C28.0581 10.6619 29.1873 12.1193 31.0581 12.1193C32.9118 12.1193 34.0069 10.6619 34.0069 8.08807V7.05682ZM32.6731 8.29688C32.6731 9.87358 32.1149 10.9645 31.0581 10.9645C29.9799 10.9645 29.3919 9.87358 29.3919 8.29688V6.84375C29.3919 5.30114 29.9672 4.30398 31.0453 4.30398C32.1106 4.30398 32.6731 5.30114 32.6731 6.84375V8.29688ZM41.035 9.54972C41.035 8.5483 40.5236 7.80682 39.7225 7.40625C40.4086 7.04403 40.839 6.39205 40.839 5.48011C40.839 3.95881 39.7353 3.15341 38.2225 3.15341C36.714 3.15341 35.589 3.95881 35.589 5.48011C35.589 6.39205 36.0151 7.03977 36.7012 7.40625C35.9 7.80256 35.3929 8.5483 35.3929 9.54972C35.3929 11.1648 36.633 12.1193 38.231 12.1193C39.812 12.1193 41.035 11.152 41.035 9.54972ZM39.5648 5.53551C39.5648 6.3196 38.9597 6.86506 38.231 6.86506C37.4895 6.86506 36.8674 6.3196 36.8674 5.52273C36.8674 4.73011 37.4895 4.26989 38.2012 4.26989C38.9554 4.26989 39.5648 4.77273 39.5648 5.53551ZM39.7225 9.50284C39.7225 10.3509 39.0918 11.0156 38.231 11.0156C37.3659 11.0156 36.6926 10.3509 36.6926 9.49006C36.6926 8.625 37.3659 7.94318 38.2012 7.94318C39.0407 7.94318 39.7225 8.625 39.7225 9.50284ZM43.7814 10.7855H42.5499V11.7784C42.5499 12.5114 42.2857 13.0739 42.0044 13.7088L42.8908 13.9773C43.4107 13.3381 43.7686 12.5412 43.7814 11.7273V10.7855ZM51.9185 3.27273H50.7466C50.6784 3.36222 50.2438 4.62358 48.7949 4.62358V5.72727C49.775 5.72727 50.4483 5.3821 50.5932 5.11364H50.6614V12H51.9185V3.27273ZM60.1866 7.05682C60.1866 4.53409 59.0787 3.15341 57.225 3.15341C55.3585 3.15341 54.2377 4.53409 54.2377 7.05682V8.08807C54.2377 10.6619 55.367 12.1193 57.2377 12.1193C59.0914 12.1193 60.1866 10.6619 60.1866 8.08807V7.05682ZM58.8528 8.29688C58.8528 9.87358 58.2946 10.9645 57.2377 10.9645C56.1596 10.9645 55.5716 9.87358 55.5716 8.29688V6.84375C55.5716 5.30114 56.1468 4.30398 57.225 4.30398C58.2903 4.30398 58.8528 5.30114 58.8528 6.84375V8.29688ZM67.3936 7.05682C67.3936 4.53409 66.2857 3.15341 64.432 3.15341C62.5655 3.15341 61.4448 4.53409 61.4448 7.05682V8.08807C61.4448 10.6619 62.574 12.1193 64.4448 12.1193C66.2985 12.1193 67.3936 10.6619 67.3936 8.08807V7.05682ZM66.0598 8.29688C66.0598 9.87358 65.5016 10.9645 64.4448 10.9645C63.3667 10.9645 62.7786 9.87358 62.7786 8.29688V6.84375C62.7786 5.30114 63.3539 4.30398 64.432 4.30398C65.4973 4.30398 66.0598 5.30114 66.0598 6.84375V8.29688ZM68.997 5.36932C68.997 6.36222 69.6149 7.18892 70.7697 7.18892C71.9032 7.18892 72.5254 6.36222 72.5254 5.36932V4.90909C72.5254 3.91619 71.9203 3.08097 70.7697 3.08097C69.6319 3.08097 68.997 3.91619 68.997 4.90909V5.36932ZM76.5055 3.20028H75.3507L69.2569 12.0724H70.416L76.5055 3.20028ZM70.0027 4.90909C70.0027 4.4233 70.2115 3.95028 70.7697 3.95028C71.345 3.95028 71.5197 4.4233 71.5197 4.90909V5.36932C71.5197 5.85511 71.3279 6.3196 70.7697 6.3196C70.1987 6.3196 70.0027 5.85511 70.0027 5.36932V4.90909ZM73.3436 10.3636C73.3436 11.3565 73.9615 12.1918 75.1163 12.1918C76.2498 12.1918 76.872 11.3565 76.872 10.3636V9.90341C76.872 8.91051 76.2669 8.07528 75.1163 8.07528C73.9785 8.07528 73.3436 8.91051 73.3436 9.90341V10.3636ZM74.3493 9.90341C74.3493 9.41761 74.5581 8.9446 75.1163 8.9446C75.6916 8.9446 75.8663 9.41761 75.8663 9.90341V10.3636C75.8663 10.8494 75.6745 11.3139 75.1163 11.3139C74.5453 11.3139 74.3493 10.8494 74.3493 10.3636V9.90341ZM80.2502 10.7855H79.0186V11.7784C79.0186 12.5114 78.7544 13.0739 78.4732 13.7088L79.3596 13.9773C79.8794 13.3381 80.2374 12.5412 80.2502 11.7273V10.7855ZM86.6145 9.77557H85.3404C85.6429 11.2756 86.5293 12.1406 88.0123 12.1406C90.1429 12.1406 90.9782 10.3722 90.9782 7.60227V7.29545C90.9782 4.6108 89.9256 3.15341 88.0463 3.15341C86.2651 3.15341 85.2253 4.47443 85.2253 6.00852C85.2253 7.49574 86.2097 8.84659 87.8631 8.84659C88.579 8.84659 89.2438 8.58665 89.6998 8.07528C89.6273 10.3764 88.8688 10.9901 87.9909 10.9901C87.1088 10.9901 86.7978 10.3722 86.6145 9.77557ZM86.5165 6.00852C86.5165 4.93892 87.1174 4.26989 88.025 4.26989C88.8816 4.26989 89.6401 4.87074 89.6444 6.12358C89.6444 7.05682 88.9924 7.72585 88.0165 7.72585C86.964 7.72585 86.5165 6.94176 86.5165 6.00852ZM98.2491 7.05682C98.2491 4.53409 97.1412 3.15341 95.2875 3.15341C93.421 3.15341 92.3002 4.53409 92.3002 7.05682V8.08807C92.3002 10.6619 93.4295 12.1193 95.3002 12.1193C97.1539 12.1193 98.2491 10.6619 98.2491 8.08807V7.05682ZM96.9153 8.29688C96.9153 9.87358 96.3571 10.9645 95.3002 10.9645C94.2221 10.9645 93.6341 9.87358 93.6341 8.29688V6.84375C93.6341 5.30114 94.2093 4.30398 95.2875 4.30398C96.3528 4.30398 96.9153 5.30114 96.9153 6.84375V8.29688ZM99.8525 5.36932C99.8525 6.36222 100.47 7.18892 101.625 7.18892C102.759 7.18892 103.381 6.36222 103.381 5.36932V4.90909C103.381 3.91619 102.776 3.08097 101.625 3.08097C100.487 3.08097 99.8525 3.91619 99.8525 4.90909V5.36932ZM107.361 3.20028H106.206L100.112 12.0724H101.271L107.361 3.20028ZM100.858 4.90909C100.858 4.4233 101.067 3.95028 101.625 3.95028C102.2 3.95028 102.375 4.4233 102.375 4.90909V5.36932C102.375 5.85511 102.183 6.3196 101.625 6.3196C101.054 6.3196 100.858 5.85511 100.858 5.36932V4.90909ZM104.199 10.3636C104.199 11.3565 104.817 12.1918 105.972 12.1918C107.105 12.1918 107.727 11.3565 107.727 10.3636V9.90341C107.727 8.91051 107.122 8.07528 105.972 8.07528C104.834 8.07528 104.199 8.91051 104.199 9.90341V10.3636ZM105.205 9.90341C105.205 9.41761 105.414 8.9446 105.972 8.9446C106.547 8.9446 106.722 9.41761 106.722 9.90341V10.3636C106.722 10.8494 106.53 11.3139 105.972 11.3139C105.401 11.3139 105.205 10.8494 105.205 10.3636V9.90341ZM109.001 13.6364H110.177C111.067 12.375 111.711 10.4659 111.711 8.45455C111.711 6.44318 111.067 4.53409 110.117 3.27273H108.983C110.006 5.01136 110.432 6.5625 110.432 8.45455C110.432 10.2784 110.006 11.8977 109.001 13.6364Z" transform="translate(289 55)" fill="#ADADAD"/>
</g>
<defs>
<clipPath id="clip0">
<rect width="794" height="949" fill="white" transform="translate(0 -742)"/>
</clipPath>
</defs>
</svg>
