<svg xmlns="http://www.w3.org/2000/svg" xmlns:xlink="http://www.w3.org/1999/xlink" width="624" height="408" viewBox="0 0 624 408">
  <defs>
    <path id="ui-a" d="M129.605469,108 L129.605469,91.4882812 L133.0625,91.4882812 L133.0625,105.328125 L141.921875,105.328125 L141.921875,108 L129.605469,108 Z M160.320312,99.6679688 C160.320312,101.386727 159.980472,102.898431 159.300781,104.203125 C158.62109,105.507819 157.648444,106.505856 156.382812,107.197266 C155.117181,107.888675 153.640633,108.234375 151.953125,108.234375 C149.359362,108.234375 147.326179,107.470711 145.853516,105.943359 C144.380852,104.416008 143.644531,102.324232 143.644531,99.6679688 C143.644531,97.019518 144.378899,94.9531324 145.847656,93.46875 C147.316414,91.9843676 149.359362,91.2421875 151.976562,91.2421875 C154.593763,91.2421875 156.638665,91.99218 158.111328,93.4921875 C159.583992,94.992195 160.320312,97.0507682 160.320312,99.6679688 Z M156.792969,99.6679688 C156.792969,97.8867098 156.371098,96.4902394 155.527344,95.4785156 C154.68359,94.4667918 153.500008,93.9609375 151.976562,93.9609375 C150.42968,93.9609375 149.234379,94.4628856 148.390625,95.4667969 C147.546871,96.4707081 147.125,97.8710848 147.125,99.6679688 C147.125,101.480478 147.556636,102.908198 148.419922,103.951172 C149.283207,104.994146 150.46093,105.515625 151.953125,105.515625 C153.500008,105.515625 154.693355,105.007818 155.533203,103.992188 C156.373051,102.976557 156.792969,101.535166 156.792969,99.6679688 Z M174.277344,108 L170.445312,101.730469 L166.390625,101.730469 L166.390625,108 L162.933594,108 L162.933594,91.4882812 L171.183594,91.4882812 C173.152354,91.4882812 174.67187,91.9121051 175.742188,92.7597656 C176.812505,93.6074261 177.347656,94.8242108 177.347656,96.4101562 C177.347656,97.566412 177.019535,98.5644489 176.363281,99.4042969 C175.707028,100.244145 174.820318,100.796874 173.703125,101.0625 L178.167969,108 L174.277344,108 Z M173.867188,96.5507812 C173.867188,94.9648358 172.851573,94.171875 170.820312,94.171875 L166.390625,94.171875 L166.390625,99.046875 L170.914062,99.046875 C171.882817,99.046875 172.617185,98.8281272 173.117188,98.390625 C173.61719,97.9531228 173.867188,97.3398477 173.867188,96.5507812 Z M180.265625,108 L180.265625,91.4882812 L193.25,91.4882812 L193.25,94.1601562 L183.722656,94.1601562 L183.722656,98.3085938 L192.535156,98.3085938 L192.535156,100.980469 L183.722656,100.980469 L183.722656,105.328125 L193.730469,105.328125 L193.730469,108 L180.265625,108 Z M209.984375,108 L209.984375,97.9921875 C209.984375,97.7656239 209.986328,97.5390636 209.990234,97.3125 C209.994141,97.0859364 210.03125,96.1132898 210.101562,94.3945312 C209.546872,96.4961043 209.13672,97.9609334 208.871094,98.7890625 L205.894531,108 L203.433594,108 L200.457031,98.7890625 L199.203125,94.3945312 C199.296875,96.2070403 199.34375,97.4062471 199.34375,97.9921875 L199.34375,108 L196.273438,108 L196.273438,91.4882812 L200.902344,91.4882812 L203.855469,100.722656 L204.113281,101.613281 L204.675781,103.828125 L205.414062,101.179688 L208.449219,91.4882812 L213.054688,91.4882812 L213.054688,108 L209.984375,108 Z M222.933594,108 L222.933594,91.4882812 L226.390625,91.4882812 L226.390625,108 L222.933594,108 Z M243.183594,96.7148438 C243.183594,97.7773491 242.941409,98.7265583 242.457031,99.5625 C241.972654,100.398442 241.279301,101.04492 240.376953,101.501953 C239.474605,101.958987 238.40235,102.1875 237.160156,102.1875 L233.058594,102.1875 L233.058594,108 L229.601562,108 L229.601562,91.4882812 L237.019531,91.4882812 C238.996104,91.4882812 240.517573,91.9433548 241.583984,92.8535156 C242.650396,93.7636764 243.183594,95.0507729 243.183594,96.7148438 Z M239.703125,96.7734375 C239.703125,95.0390538 238.679698,94.171875 236.632812,94.171875 L233.058594,94.171875 L233.058594,99.5273438 L236.726562,99.5273438 C237.679692,99.5273438 238.41406,99.291018 238.929688,98.8183594 C239.445315,98.3457008 239.703125,97.664067 239.703125,96.7734375 Z M259.074219,103.242188 C259.074219,104.859383 258.474615,106.095699 257.275391,106.951172 C256.076166,107.806645 254.316418,108.234375 251.996094,108.234375 C249.878896,108.234375 248.218756,107.859379 247.015625,107.109375 C245.812494,106.359371 245.039064,105.222664 244.695312,103.699219 L248.035156,103.148438 C248.26172,104.023442 248.703122,104.658201 249.359375,105.052734 C250.015628,105.447268 250.925775,105.644531 252.089844,105.644531 C254.503918,105.644531 255.710938,104.910164 255.710938,103.441406 C255.710938,102.972654 255.572267,102.585939 255.294922,102.28125 C255.017577,101.976561 254.626956,101.722657 254.123047,101.519531 C253.619138,101.316405 252.652351,101.070314 251.222656,100.78125 C249.988275,100.492186 249.128909,100.259767 248.644531,100.083984 C248.160154,99.9082022 247.722658,99.7011731 247.332031,99.4628906 C246.941404,99.2246082 246.609376,98.9375017 246.335938,98.6015625 C246.062499,98.2656233 245.84961,97.871096 245.697266,97.4179688 C245.544921,96.9648415 245.46875,96.4453154 245.46875,95.859375 C245.46875,94.36718 246.029291,93.2246133 247.150391,92.4316406 C248.27149,91.6386679 249.902333,91.2421875 252.042969,91.2421875 C254.089854,91.2421875 255.626948,91.5624968 256.654297,92.203125 C257.681646,92.8437532 258.343749,93.9023364 258.640625,95.3789062 L255.289062,95.8359375 C255.117187,95.1249964 254.767581,94.5898455 254.240234,94.2304688 C253.712888,93.871092 252.957036,93.6914062 251.972656,93.6914062 C249.878896,93.6914062 248.832031,94.3476497 248.832031,95.6601562 C248.832031,96.0898459 248.943358,96.4414049 249.166016,96.7148438 C249.388673,96.9882826 249.718748,97.2207022 250.15625,97.4121094 C250.593752,97.6035166 251.480462,97.8437486 252.816406,98.1328125 C254.402352,98.4687517 255.537106,98.7792954 256.220703,99.0644531 C256.9043,99.3496108 257.445311,99.6816387 257.84375,100.060547 C258.242189,100.439455 258.546874,100.892575 258.757812,101.419922 C258.968751,101.947268 259.074219,102.554684 259.074219,103.242188 Z M268.484375,108.234375 C266.210926,108.234375 264.470709,107.679693 263.263672,106.570312 C262.056635,105.460932 261.453125,103.87501 261.453125,101.8125 L261.453125,91.4882812 L264.910156,91.4882812 L264.910156,101.542969 C264.910156,102.847663 265.2207,103.837887 265.841797,104.513672 C266.462894,105.189457 267.374994,105.527344 268.578125,105.527344 C269.812506,105.527344 270.761715,105.173832 271.425781,104.466797 C272.089847,103.759762 272.421875,102.7461 272.421875,101.425781 L272.421875,91.4882812 L275.878906,91.4882812 L275.878906,101.636719 C275.878906,103.730479 275.232428,105.35351 273.939453,106.505859 C272.646478,107.658209 270.828137,108.234375 268.484375,108.234375 Z M292.660156,108 L292.660156,97.9921875 C292.660156,97.7656239 292.662109,97.5390636 292.666016,97.3125 C292.669922,97.0859364 292.707031,96.1132898 292.777344,94.3945312 C292.222653,96.4961043 291.812501,97.9609334 291.546875,98.7890625 L288.570312,108 L286.109375,108 L283.132812,98.7890625 L281.878906,94.3945312 C281.972657,96.2070403 282.019531,97.4062471 282.019531,97.9921875 L282.019531,108 L278.949219,108 L278.949219,91.4882812 L283.578125,91.4882812 L286.53125,100.722656 L286.789062,101.613281 L287.351562,103.828125 L288.089844,101.179688 L291.125,91.4882812 L295.730469,91.4882812 L295.730469,108 L292.660156,108 Z"/>
  </defs>
  <g fill="none" fill-rule="evenodd">
    <rect width="624" height="408" fill="#FFF" fill-rule="nonzero"/>
    <rect width="624" height="63" fill="#0E5B78" fill-rule="nonzero"/>
    <rect width="163" height="32" x="436" y="15" fill="#023752" fill-rule="nonzero" rx="5"/>
    <rect width="104" height="345" y="63" fill="#5DB1C5" fill-rule="nonzero"/>
    <use fill="#000" xlink:href="#ui-a"/>
    <use fill="#023752" xlink:href="#ui-a"/>
    <rect width="243" height="16" x="128" y="131" fill="#93A4AB" fill-rule="nonzero" rx="4"/>
    <rect width="43" height="16" x="549" y="131" fill="#93A4AB" fill-rule="nonzero" rx="4"/>
    <rect width="464" height="16" x="128" y="188" fill="#E4EBEE" fill-rule="nonzero" rx="4"/>
    <rect width="464" height="16" x="128" y="220" fill="#E4EBEE" fill-rule="nonzero" rx="4"/>
    <rect width="464" height="16" x="128" y="252" fill="#E4EBEE" fill-rule="nonzero" rx="4"/>
    <rect width="326" height="16" x="128" y="283" fill="#E4EBEE" fill-rule="nonzero" rx="4"/>
  </g>
</svg>
